<mxfile host="app.diagrams.net" modified="2024-07-01T09:46:45.956Z" agent="Mozilla/5.0 (X11; Linux x86_64) AppleWebKit/537.36 (KHTML, like Gecko) Chrome/126.0.0.0 Safari/537.36" etag="pY5MiU2V8Fn2_NdQ2rMJ" version="24.6.4" type="github">
  <diagram name="Page-1" id="6Vo9h7dBUyHfF2zumn5d">
    <mxGraphModel dx="1436" dy="5935" grid="0" gridSize="10" guides="1" tooltips="1" connect="1" arrows="1" fold="1" page="1" pageScale="1" pageWidth="1400" pageHeight="850" math="0" shadow="0">
      <root>
        <mxCell id="0" />
        <mxCell id="1" parent="0" />
        <mxCell id="oGBp75-06O2wuK81VP2u-1" value="" style="rounded=0;whiteSpace=wrap;html=1;" vertex="1" parent="1">
          <mxGeometry x="9.489999999999995" y="-5088" width="1403" height="850" as="geometry" />
        </mxCell>
        <mxCell id="oGBp75-06O2wuK81VP2u-4" value="" style="endArrow=none;html=1;rounded=0;exitX=-0.001;exitY=0.107;exitDx=0;exitDy=0;exitPerimeter=0;entryX=1.003;entryY=0.109;entryDx=0;entryDy=0;entryPerimeter=0;" edge="1" parent="1" source="oGBp75-06O2wuK81VP2u-1" target="oGBp75-06O2wuK81VP2u-1">
          <mxGeometry width="50" height="50" relative="1" as="geometry">
            <mxPoint x="513.49" y="-4664" as="sourcePoint" />
            <mxPoint x="563.4899999999999" y="-4714" as="targetPoint" />
          </mxGeometry>
        </mxCell>
        <mxCell id="oGBp75-06O2wuK81VP2u-9" value="" style="shape=image;verticalLabelPosition=bottom;labelBackgroundColor=default;verticalAlign=top;aspect=fixed;imageAspect=0;image=data:image/png,iVBORw0KGgoAAAANSUhEUgAAAKYAAAA0CAYAAAAAJkM/AAAABHNCSVQICAgIfAhkiAAAABl0RVh0U29mdHdhcmUAZ25vbWUtc2NyZWVuc2hvdO8Dvz4AAAAtdEVYdENyZWF0aW9uIFRpbWUATW9uIDAxIEp1bCAyMDI0IDAxOjUwOjEyIFBNICswN0vu1RAAAA0bSURBVHic7Zx5XJVVGse/dwOuoSiIC6gsmk0uiQKhY0im4yhabqkpqTiaBGmTopkamibiviSSmZnhMikuaDouoSggaGnlkKnohMqiCChMyGUR7vxBXH3ve4EL2PTavN/P5/3jPOec5573vb97znme94CihUNrPTIyEkP5ew9ARsYUsjBlJIksTBlJIgtTRpLIwpSRJLIwZSSJLEwZSSILU0aSyMKUkSSyMGUkidqcRhlp18nKusPRo8dYtHgJ9+8XmOV82NAhfLR2Nbm5uezbf4APPlgoqA8LXYS//zhKSkpITk4m5kQs4eERPHjwoEbfCXGxWFtbE5eQwMKFoeTk5Ajqb6ReIys7m4MHD7F8+Qp0uqIqfanVaubOnc0g3wE4OjqiUCgAiNiwkQ8/XCRqr9FoGOg7gBd7v0jnjp1o1cqBRo0aUVZWRuzJk0Tt3svhw0coLS015zFVidJCi+OoqaRtXVZnH9bWDbl65WKt+x04cJCAwCBD+acfL9CkSROz+xcWFtL26T/V+nMrMUuYAC1btsDffxxPP/00r44cZfYHqFQqmjVrRsAbk7B+6ilmzJwlamNhYYG7uzvu7u509/LCf8JEioqqFlIlzZs3Z8Tw4XTt0oXeffqJBN3a0ZHAgMk4tW7DxDcmm/ShVCqJjPyc3j4+AnvM8eOEhi4Wte/YsQPr133EM8+0N3mvffv0oW+fPty8eZPAt97mu+++q/E+qsJh6GSa9xvNvbNfU5DyfZ186PV1Owpx7dq1OvWrJDn5x3r1N2spf/TmevbsQbdu3er0YX5jRmNpaVltG59e3ixauKBWftu1a8ewYUOrrPf17U/Hjh1M1s2fHyIS5ZUrKQS8OYXy8nKBvX379uzbE2VSlMa0adOGqKgv6dqlixl3IMbSvhXNB7wOgPPEEBRKVZ381IWcnBy2RG6tc3+drojQsKX1GoPZM+ajeHTrWueZwNa2Cbdu3a62jZ/faA4fPsLx2Fiz/Xp5erJrV1SV9Z6eHly8+JPANnLkCCZPmiiw3b17l7Fj/SksvC/ysW7dGho2bCiwXb16lZNx8djZ2fJir17Y2toa6hpYWfHJpxvw6fUSuiKd2fcC4DRxHgpVxddj5eBC0+6DyE7cXysfVRFz/DgXfviXyF6OnkuXLnMy9lSN4z137hynTsWL7GkZGcTEHCc3N7deYzRLmJV7rkostdp6fWglSmXVE/batavo6d2b/Pw8s3zZ2NhU69vGprGg3LVLF1YsWyKwlZaW8vrr40nLSBf5f/55T57r1Elg27R5M/PmLTCsKFqtFStWLGPYkCGGNq0dHRn92ig2b9li1n0ANPHqR6OOnoayvqAIe6c+5CR9hV5fXk1PMcbfHcDXMSeIrMeMCPDNt+dZsWp1vXxUh2Sjcjs7O9auXvGb+HZ0dGDr1i1oNBqBffr0mXx/4YLJPqa2AsuXrxZsc3S6It5+exqRkdsE24Du3b3MHpvSQkub12cIbGVXM9FY29K0Yz+z/Tzp1Gkp/1/x17/2Y/DgV9i//8Bj86nVWrFjWyR2dnYCe0TEBnbv3Vtlv0aNbEQ2jUb8+MrKypg1ew5hS5fRocOzAPyS/4vZ43MYOhlNY3tDWZ+dj15XgkKjwsF7PHevxlNWLN5m/NH4XWdM44jx3r17JCaeEdiWhoWKRFQfNkSsp317YfASe+oUixaHVdsv7cZNkS0kZG6V25G8vDwSE5NITEwi+aJ5EeqjAQ9AeXEhD9JyQK1Er1KCWomL74xqPPxxkNxSHjRlKgUFD/OkNjY2rFu3ptZ+jEWv1+sJDp5Gv35/EdhTUlKYNOnNGtMqcQkJorzkqBGvcuir6DpnKYxxmhhiCHgAMnaFcythBwq1ynBZO3fGupXpDMMfCckt5VlZWbz//jzWrFllsPX28WHMmNHs2PEPs/0Yp3peetEHL6/nBbbc3Fz8/MabjMCNycnJITw8gmnT/i6wu7m5ceiraHJycriQnMzphEQO/fMIN2/eMHusUBnwPByfLu0qd2J2AXqaew1BZWVtqHMdNpfk8HHoy8tq9GvqB/fm5EkMeeUVk+13RkWxc+euGv0GBQYQFBhQZb2TSztKSkpq9FMVv+uMaRwxVpZ3Ru0m9tQpQd2HCz+glYOj2b5VKmHez1iUxcXFjB3rT3pmhtk+l61YyfKVqygrEwuiadOm9Ondm3khczmTGMdHH62mRYvmZvk1FfCU/usqmgZ26MvL+ffeUBQadcWsqVGjamCNQ+/xZvk2FZW7uLjQo4eXycv4uf1eSG4pr2Tq1HfIz883lBtotXz88TqTD7ouKJVKlOraLxirVq3B2+clwsMjSE8Xp5WgQgwjhg8nMSFetHUwhXHAk/dtLNqGTrj6zgSgMPMK+de/R69Wgqpiv9msx1A0DR/f3hugoKCAQ4cOP1afdUVyS3klubm5/H1aMFs2bzLYPDw8CHhjEhs2flpjf+OlPCnpLD16PEzbaDQatkV+zoCBr3D9+vVajS01NZXQsCUsXrIU7xdeYOSoVxnk6yt6q6XVWrF500b6DxjEjxdNv68WBTxFhVjpGqKwVGNl35rG7XqQdy2J63uW0mXObkCBAj2goK3fh1zeEGTSbyWmlvLU1FRu375jKJeUlvDTpUt88cU2s/PGVSXYKzG1qtQGyQoT4OjRY+zZt4/hQx++bpw9exYxJ2p+I2Q8s56MiyPmxAlC5s422Bo3bsyObV8wYOBgs7+QR9Hr9cTFxxMXH0+w5bu80LMnoYsW4OTkZGijUql4KyiQwLemmPRhHPDcjT9MYzs3Q9n55WAurPOjvKSQtMMRtB401VCndWyLzTPdyb8izGQ8iqkVZsPGTXKCvb689977ZGVlGcoWFhZ88nGE6IGbc1ghIuJj9kZHC2wuLi5s3/q5KNleW4qLizl+4gQv9e3PzZvC1JKnp6fJPsYBT1FmKrf2b0RhoUZhoam4LDW07h8IQM43h3igy/t1r1kRpbuOnY9CVb+xSxHJC7Og4BeCprwtsHXo8CdcXV0FtqoCKePyO+8Ec/78eUGdu7s7a9asrHYcPt69mDF9muGqTJ4bU1h4n927hYl6R8eWovGYCniuf7aQ4vw7ZF84ChYq9BoVaFTYuvXFqmkr0Ou59vkcUCkNl8LSktaDTc/GTzKSFyZAYmIS27ebnyqqjtLSUvzGThAFLsOGDGH69Heq7Ne2rSvBwdMM18ED++ncsZPJtg4ODoLy7dtZohndOODJSThIQcoPAGTGbEKvAoVl5ayppq1/GCgU6G79m7xLp1GoK0SrUKto+sIQLO1b1eo5SJ0nQpgAIfMXkJ6Z+Vh85efnMfI1P0EiH2Bm8HQGDvQ12SfxTJKgrNVasWFDuCgN5ebmxvDhwiN4588LT2KZCnjSd6zkqXbPYdO5BwoLLalRS1BoVGChBo0aS/uW2HWtiPCvb1+MXql4OHOqlbQLWAaPKWMhBcwKfox/7d49e2JZxZ7sy127SU9Pq//IjNDpCgkMnMKB6D2PJWWUmprKOP+/EbXzH4Lc3fp1a7l9O0u03F++fIX4+NN4e/c02FxdXYneu5vs7Gx+/jkVlUqJh4eH6LOMswiiNzxR4TgMC6BZ39cAKP3PXS6FjKE4LxOr5hWBlAJwHjuXe8nxlJfouLFtEc4TPjDUWTk4Y+fZj9xvjtbnsZjN857uzJg+TWRPy8jgyJFjdQomH6VOx968vXsKvqBHSTp79jcRJlSkKD79bLPoDGVdSUo6Q/DMWaxZ9fAUk6WlJdu3bqFvP1/RfUyf8S779+3BwaGFwG5vb4+9vT2mCA1byrlz5wxlUwHPnZhddFl/3GDTNLKl4bMeXPtsDp3m74Rf00N69DiPD+HnTXPIPfc1LV6ehFWLNhXVgPPEBdz7IY7yktqd/awLHh4eJn+EABnBtxgx6jVSU1Pr7P+JWcorCQ0N48aNml/3mXpXboqdO3exbIUw8LGxsWHXl9tEZzjT09N4efBgtm3bUePfJeXn5xMUNJXw8PUGm9JCS+sxwQ/HVF5G6ich6MvLKCsUnkAqKy6iODudW8ciDftMhYUGW68+aB3bgV5Pysqgh+/Rf91vOk8IqXZc/wscHVuyfOmSmhtWw28uTJ2uSHDVl5KSEgIC3hIl0OvD6tVrGef/N06fTjIkhl1cXNiyeZMojZSZeYuZs97jmWc7M37CRNauXcfe6GhOn04iKeksp+Liefe9OXTz6M6+/cIT5w5DJ2Nh24zykmLyfognJexN7v9ckXjPjP6Ukrt3KC8p4u6ZY+Sdq5hBMw98QsqaqZSV6gz7zfbvRqBQKCnNz+H7qX3Iv/wtqFSgVmL75/40aFPzn3781ri5PVev/gr5H7fKSJEnbimX+f9AFqaMJJGFKSNJZGHKSBJZmDKSRBamjCSRhSkjSWRhykgSWZgykkQWpowkkYUpI0lkYcpIElmYMpJEFqaMJJGFKSNJZGHKSBJZmDKSRBamjCT5LwaRhw4PhSO4AAAAAElFTkSuQmCC;" vertex="1" parent="1">
          <mxGeometry x="35.48999999999999" y="-5063" width="150.04" height="47" as="geometry" />
        </mxCell>
        <mxCell id="oGBp75-06O2wuK81VP2u-17" value="&lt;font style=&quot;font-size: 24px;&quot;&gt;LINKSAFE Policies&lt;/font&gt;" style="rounded=0;whiteSpace=wrap;html=1;strokeColor=none;" vertex="1" parent="1">
          <mxGeometry x="31.489999999999988" y="-4968" width="233" height="67" as="geometry" />
        </mxCell>
        <mxCell id="oGBp75-06O2wuK81VP2u-18" value="&lt;font style=&quot;font-size: 18px;&quot;&gt;Search by name and decription ...&lt;/font&gt;" style="rounded=1;whiteSpace=wrap;html=1;align=center;" vertex="1" parent="1">
          <mxGeometry x="42.48999999999999" y="-4850.5" width="371" height="54" as="geometry" />
        </mxCell>
        <mxCell id="oGBp75-06O2wuK81VP2u-19" value="" style="shape=image;verticalLabelPosition=bottom;labelBackgroundColor=default;verticalAlign=top;aspect=fixed;imageAspect=0;image=data:image/png,iVBORw0KGgoAAAANSUhEUgAAACUAAAAbCAYAAAD77kbeAAAABHNCSVQICAgIfAhkiAAAABl0RVh0U29mdHdhcmUAZ25vbWUtc2NyZWVuc2hvdO8Dvz4AAAAtdEVYdENyZWF0aW9uIFRpbWUATW9uIDAxIEp1bCAyMDI0IDAyOjI3OjI4IFBNICswN8JhLMoAAAHDSURBVEiJ7dbNTxNBGMfxL7t7o6eumGwVNmq2lFPTmjRqUkwJFpiTF/17/GM4eJSEG8GXeACaSi0NGg+kAqH7cmCOtGx29WAwIVa7ZZu1h/6uz7OTT2aezM5UsVT+wZhF+d+AfpmgomaCipqxRGnDfjBrmmRzC+i6ThAEuLbNYesAKeXIUKpxx3wVtbkqBMsrq3QvLrA7HXrdLnP37vN0aYnLXo/O2dlIUJF3qioEDyyL1+vrnB5/v1bLF4pUhcD3fZqN/dioSDM1a5rkC0U232z8AQJoNvb5sL3NYqWCosQf00grZHMLtI+O+oKuUtvdQVVVrPlcMihd13Fse2Cf57mk9XQyqCAI0LTB46coGmEQJoNybZu7c+Y/e6ZTKYyMgeMM3tGRoA5bBxgZg3yh+NeeZ2sCz3E4breTQUkpebe1RVUISo8eX6tNp1I8f/ESK5vl9OQkNgiGuKfqtT1832exUuFJuYznuiiqhpEx8ByHT7UaD0slpDynUa8ng4Jf91Gr+RlrPkdaTxMGIR/fv/19ZFKes7yyChALNvS/LwxDvn390rd2Bbk1c/vGoBuhBiXu0cGYPl0mqKiZoKJmLFE/AeScmQjUcPQpAAAAAElFTkSuQmCC;" vertex="1" parent="1">
          <mxGeometry x="47.48999999999999" y="-4838" width="37" height="27" as="geometry" />
        </mxCell>
        <mxCell id="oGBp75-06O2wuK81VP2u-20" value="&lt;font style=&quot;font-size: 18px;&quot;&gt;All&amp;nbsp; &amp;nbsp; &amp;nbsp;Active&amp;nbsp; &amp;nbsp; Inactive&lt;/font&gt;" style="rounded=1;whiteSpace=wrap;html=1;" vertex="1" parent="1">
          <mxGeometry x="451.49" y="-4850.5" width="210" height="53" as="geometry" />
        </mxCell>
        <mxCell id="oGBp75-06O2wuK81VP2u-21" value="" style="endArrow=none;html=1;rounded=0;entryX=0.25;entryY=0;entryDx=0;entryDy=0;exitX=0.25;exitY=1;exitDx=0;exitDy=0;" edge="1" parent="1" source="oGBp75-06O2wuK81VP2u-20" target="oGBp75-06O2wuK81VP2u-20">
          <mxGeometry width="50" height="50" relative="1" as="geometry">
            <mxPoint x="565.4899999999999" y="-4461" as="sourcePoint" />
            <mxPoint x="615.49" y="-4511" as="targetPoint" />
          </mxGeometry>
        </mxCell>
        <mxCell id="oGBp75-06O2wuK81VP2u-22" value="" style="endArrow=none;html=1;rounded=0;entryX=0.583;entryY=-0.043;entryDx=0;entryDy=0;entryPerimeter=0;exitX=0.586;exitY=0.992;exitDx=0;exitDy=0;exitPerimeter=0;" edge="1" parent="1" source="oGBp75-06O2wuK81VP2u-20" target="oGBp75-06O2wuK81VP2u-20">
          <mxGeometry width="50" height="50" relative="1" as="geometry">
            <mxPoint x="812.49" y="-4807" as="sourcePoint" />
            <mxPoint x="754.49" y="-4851" as="targetPoint" />
          </mxGeometry>
        </mxCell>
        <mxCell id="oGBp75-06O2wuK81VP2u-23" value="&lt;font style=&quot;font-size: 18px;&quot;&gt;10 rows per page&lt;/font&gt;" style="rounded=1;whiteSpace=wrap;html=1;" vertex="1" parent="1">
          <mxGeometry x="715.49" y="-4850" width="165" height="53" as="geometry" />
        </mxCell>
        <mxCell id="oGBp75-06O2wuK81VP2u-24" value="&lt;font style=&quot;font-size: 18px;&quot;&gt;+ Add policy&lt;/font&gt;" style="rounded=1;whiteSpace=wrap;html=1;" vertex="1" parent="1">
          <mxGeometry x="1202.49" y="-4848.5" width="191" height="52" as="geometry" />
        </mxCell>
        <mxCell id="oGBp75-06O2wuK81VP2u-26" value="&lt;font style=&quot;font-size: 18px;&quot;&gt;Name&lt;span style=&quot;white-space: pre;&quot;&gt;&#x9;&lt;/span&gt;&lt;span style=&quot;white-space: pre;&quot;&gt;&#x9;&lt;/span&gt;&lt;span style=&quot;white-space: pre;&quot;&gt;&#x9;&lt;/span&gt;&lt;span style=&quot;white-space: pre;&quot;&gt;&#x9;&lt;/span&gt;&lt;span style=&quot;white-space: pre;&quot;&gt;&#x9;&lt;/span&gt;&lt;span style=&quot;white-space: pre;&quot;&gt;&#x9;&lt;/span&gt;&lt;span style=&quot;white-space: pre;&quot;&gt;&#x9;&lt;/span&gt;&lt;span style=&quot;white-space: pre;&quot;&gt;&#x9;&lt;/span&gt;Active&lt;span style=&quot;white-space: pre;&quot;&gt;&#x9;&lt;span style=&quot;white-space: pre;&quot;&gt;&#x9;&lt;/span&gt;&lt;span style=&quot;white-space: pre;&quot;&gt;&#x9;&lt;/span&gt;&lt;/span&gt;&amp;nbsp;Source Zone &lt;span style=&quot;white-space: pre;&quot;&gt;&#x9;&lt;/span&gt;&lt;span style=&quot;white-space: pre;&quot;&gt;&#x9;&lt;/span&gt;&lt;span style=&quot;white-space: pre;&quot;&gt;&#x9;&lt;/span&gt;Destination&amp;nbsp;Zone&lt;span style=&quot;white-space: pre;&quot;&gt;&#x9;&lt;span style=&quot;white-space: pre;&quot;&gt;&#x9;&lt;/span&gt;&lt;/span&gt;&lt;span style=&quot;white-space: pre;&quot;&gt;&#x9;&lt;/span&gt; Protocol&lt;span style=&quot;white-space: pre;&quot;&gt;&#x9;&lt;span style=&quot;white-space: pre;&quot;&gt;&#x9;&lt;/span&gt;&lt;span style=&quot;white-space: pre;&quot;&gt;&#x9;&lt;/span&gt;&lt;span style=&quot;white-space: pre;&quot;&gt;&#x9;&lt;/span&gt;&lt;/span&gt;&lt;span style=&quot;white-space: pre;&quot;&gt;&#x9;&lt;/span&gt;&lt;span style=&quot;white-space: pre;&quot;&gt;&#x9;&lt;/span&gt;&lt;/font&gt;" style="rounded=0;whiteSpace=wrap;html=1;" vertex="1" parent="1">
          <mxGeometry x="13.489999999999995" y="-4776" width="1396" height="53" as="geometry" />
        </mxCell>
        <mxCell id="oGBp75-06O2wuK81VP2u-28" value="" style="rounded=1;whiteSpace=wrap;html=1;" vertex="1" parent="1">
          <mxGeometry x="910.49" y="-4850.5" width="63" height="52" as="geometry" />
        </mxCell>
        <mxCell id="oGBp75-06O2wuK81VP2u-30" value="" style="shape=image;html=1;verticalAlign=top;verticalLabelPosition=bottom;labelBackgroundColor=#ffffff;imageAspect=0;aspect=fixed;image=https://cdn0.iconfinder.com/data/icons/evericons-24px-vol-1/24/refresh-ccw-128.png" vertex="1" parent="1">
          <mxGeometry x="926.61" y="-4838.88" width="30.75" height="30.75" as="geometry" />
        </mxCell>
        <mxCell id="oGBp75-06O2wuK81VP2u-31" value="&lt;div style=&quot;text-align: left;&quot;&gt;&lt;span style=&quot;font-size: 14px; white-space-collapse: preserve; background-color: initial;&quot;&gt;Create rules to manage access in your network and define what peers can connect.&lt;/span&gt;&lt;/div&gt;&lt;span&gt;&lt;div style=&quot;text-align: left;&quot;&gt;&lt;span style=&quot;font-size: 14px; white-space-collapse: preserve; background-color: initial;&quot;&gt;Learn more about Policies in our documentation.&lt;/span&gt;&lt;/div&gt;&lt;/span&gt;" style="rounded=1;whiteSpace=wrap;html=1;strokeColor=none;" vertex="1" parent="1">
          <mxGeometry x="42.48999999999999" y="-4923.5" width="523" height="60" as="geometry" />
        </mxCell>
        <mxCell id="oGBp75-06O2wuK81VP2u-38" value="&lt;font style=&quot;font-size: 24px;&quot;&gt;Routes&lt;/font&gt;" style="rounded=1;whiteSpace=wrap;html=1;strokeColor=none;" vertex="1" parent="1">
          <mxGeometry x="664.49" y="-5069.5" width="120" height="60" as="geometry" />
        </mxCell>
        <mxCell id="oGBp75-06O2wuK81VP2u-39" value="&lt;font style=&quot;font-size: 24px;&quot;&gt;Nameservers&lt;/font&gt;" style="rounded=1;whiteSpace=wrap;html=1;strokeColor=none;" vertex="1" parent="1">
          <mxGeometry x="846.49" y="-5065" width="200.13" height="51" as="geometry" />
        </mxCell>
        <mxCell id="oGBp75-06O2wuK81VP2u-40" value="&lt;span style=&quot;font-size: 24px;&quot;&gt;DNS Settings&lt;/span&gt;" style="rounded=1;whiteSpace=wrap;html=1;strokeColor=none;" vertex="1" parent="1">
          <mxGeometry x="1093.49" y="-5065" width="200.13" height="51" as="geometry" />
        </mxCell>
        <mxCell id="oGBp75-06O2wuK81VP2u-41" value="&lt;font style=&quot;font-size: 24px;&quot;&gt;Policies&lt;/font&gt;" style="rounded=1;whiteSpace=wrap;html=1;" vertex="1" parent="1">
          <mxGeometry x="418.49" y="-5074" width="151" height="60" as="geometry" />
        </mxCell>
        <mxCell id="oGBp75-06O2wuK81VP2u-42" value="&lt;font style=&quot;font-size: 18px;&quot;&gt;Policy 1&lt;/font&gt;" style="rounded=1;whiteSpace=wrap;html=1;strokeColor=none;" vertex="1" parent="1">
          <mxGeometry x="50.50999999999999" y="-4717" width="120" height="60" as="geometry" />
        </mxCell>
        <mxCell id="oGBp75-06O2wuK81VP2u-43" value="" style="fillColor=#36B37E;strokeColor=none;rounded=1;arcSize=50;sketch=0;hachureGap=4;pointerEvents=0;fontFamily=Architects Daughter;fontSource=https%3A%2F%2Ffonts.googleapis.com%2Fcss%3Ffamily%3DArchitects%2BDaughter;fontSize=20;" vertex="1" parent="1">
          <mxGeometry x="455.49" y="-4694" width="42" height="23" as="geometry" />
        </mxCell>
        <mxCell id="oGBp75-06O2wuK81VP2u-44" value="" style="shape=ellipse;strokeColor=none;fillColor=#ffffff;sketch=0;hachureGap=4;pointerEvents=0;fontFamily=Architects Daughter;fontSource=https%3A%2F%2Ffonts.googleapis.com%2Fcss%3Ffamily%3DArchitects%2BDaughter;fontSize=20;" vertex="1" parent="oGBp75-06O2wuK81VP2u-43">
          <mxGeometry x="1" y="0.5" width="12" height="12" relative="1" as="geometry">
            <mxPoint x="-14" y="-6" as="offset" />
          </mxGeometry>
        </mxCell>
        <mxCell id="oGBp75-06O2wuK81VP2u-45" value="" style="html=1;shadow=0;dashed=0;shape=mxgraph.atlassian.check;strokeColor=#ffffff;sketch=1;hachureGap=4;pointerEvents=0;fontFamily=Architects Daughter;fontSource=https%3A%2F%2Ffonts.googleapis.com%2Fcss%3Ffamily%3DArchitects%2BDaughter;fontSize=20;" vertex="1" parent="oGBp75-06O2wuK81VP2u-43">
          <mxGeometry y="0.5" width="6" height="5" relative="1" as="geometry">
            <mxPoint x="4" y="-3" as="offset" />
          </mxGeometry>
        </mxCell>
        <mxCell id="oGBp75-06O2wuK81VP2u-46" value="" style="endArrow=none;html=1;rounded=0;exitX=0;exitY=0.527;exitDx=0;exitDy=0;exitPerimeter=0;entryX=1.004;entryY=0.526;entryDx=0;entryDy=0;entryPerimeter=0;" edge="1" parent="1" source="oGBp75-06O2wuK81VP2u-1" target="oGBp75-06O2wuK81VP2u-1">
          <mxGeometry width="50" height="50" relative="1" as="geometry">
            <mxPoint x="560.4899999999999" y="-4667" as="sourcePoint" />
            <mxPoint x="610.49" y="-4717" as="targetPoint" />
          </mxGeometry>
        </mxCell>
        <mxCell id="oGBp75-06O2wuK81VP2u-47" value="" style="rounded=0;whiteSpace=wrap;html=1;" vertex="1" parent="1">
          <mxGeometry x="74.4" y="4969" width="1403" height="850" as="geometry" />
        </mxCell>
        <mxCell id="oGBp75-06O2wuK81VP2u-48" value="" style="endArrow=none;html=1;rounded=0;exitX=-0.001;exitY=0.107;exitDx=0;exitDy=0;exitPerimeter=0;entryX=1.003;entryY=0.109;entryDx=0;entryDy=0;entryPerimeter=0;" edge="1" parent="1" source="oGBp75-06O2wuK81VP2u-47" target="oGBp75-06O2wuK81VP2u-47">
          <mxGeometry width="50" height="50" relative="1" as="geometry">
            <mxPoint x="578.4" y="5393" as="sourcePoint" />
            <mxPoint x="628.4" y="5343" as="targetPoint" />
          </mxGeometry>
        </mxCell>
        <mxCell id="oGBp75-06O2wuK81VP2u-49" value="" style="shape=image;verticalLabelPosition=bottom;labelBackgroundColor=default;verticalAlign=top;aspect=fixed;imageAspect=0;image=data:image/png,iVBORw0KGgoAAAANSUhEUgAAAKYAAAA0CAYAAAAAJkM/AAAABHNCSVQICAgIfAhkiAAAABl0RVh0U29mdHdhcmUAZ25vbWUtc2NyZWVuc2hvdO8Dvz4AAAAtdEVYdENyZWF0aW9uIFRpbWUATW9uIDAxIEp1bCAyMDI0IDAxOjUwOjEyIFBNICswN0vu1RAAAA0bSURBVHic7Zx5XJVVGse/dwOuoSiIC6gsmk0uiQKhY0im4yhabqkpqTiaBGmTopkamibiviSSmZnhMikuaDouoSggaGnlkKnohMqiCChMyGUR7vxBXH3ve4EL2PTavN/P5/3jPOec5573vb97znme94CihUNrPTIyEkP5ew9ARsYUsjBlJIksTBlJIgtTRpLIwpSRJLIwZSSJLEwZSSILU0aSyMKUkSSyMGUkidqcRhlp18nKusPRo8dYtHgJ9+8XmOV82NAhfLR2Nbm5uezbf4APPlgoqA8LXYS//zhKSkpITk4m5kQs4eERPHjwoEbfCXGxWFtbE5eQwMKFoeTk5Ajqb6ReIys7m4MHD7F8+Qp0uqIqfanVaubOnc0g3wE4OjqiUCgAiNiwkQ8/XCRqr9FoGOg7gBd7v0jnjp1o1cqBRo0aUVZWRuzJk0Tt3svhw0coLS015zFVidJCi+OoqaRtXVZnH9bWDbl65WKt+x04cJCAwCBD+acfL9CkSROz+xcWFtL26T/V+nMrMUuYAC1btsDffxxPP/00r44cZfYHqFQqmjVrRsAbk7B+6ilmzJwlamNhYYG7uzvu7u509/LCf8JEioqqFlIlzZs3Z8Tw4XTt0oXeffqJBN3a0ZHAgMk4tW7DxDcmm/ShVCqJjPyc3j4+AnvM8eOEhi4Wte/YsQPr133EM8+0N3mvffv0oW+fPty8eZPAt97mu+++q/E+qsJh6GSa9xvNvbNfU5DyfZ186PV1Owpx7dq1OvWrJDn5x3r1N2spf/TmevbsQbdu3er0YX5jRmNpaVltG59e3ixauKBWftu1a8ewYUOrrPf17U/Hjh1M1s2fHyIS5ZUrKQS8OYXy8nKBvX379uzbE2VSlMa0adOGqKgv6dqlixl3IMbSvhXNB7wOgPPEEBRKVZ381IWcnBy2RG6tc3+drojQsKX1GoPZM+ajeHTrWueZwNa2Cbdu3a62jZ/faA4fPsLx2Fiz/Xp5erJrV1SV9Z6eHly8+JPANnLkCCZPmiiw3b17l7Fj/SksvC/ysW7dGho2bCiwXb16lZNx8djZ2fJir17Y2toa6hpYWfHJpxvw6fUSuiKd2fcC4DRxHgpVxddj5eBC0+6DyE7cXysfVRFz/DgXfviXyF6OnkuXLnMy9lSN4z137hynTsWL7GkZGcTEHCc3N7deYzRLmJV7rkostdp6fWglSmXVE/batavo6d2b/Pw8s3zZ2NhU69vGprGg3LVLF1YsWyKwlZaW8vrr40nLSBf5f/55T57r1Elg27R5M/PmLTCsKFqtFStWLGPYkCGGNq0dHRn92ig2b9li1n0ANPHqR6OOnoayvqAIe6c+5CR9hV5fXk1PMcbfHcDXMSeIrMeMCPDNt+dZsWp1vXxUh2Sjcjs7O9auXvGb+HZ0dGDr1i1oNBqBffr0mXx/4YLJPqa2AsuXrxZsc3S6It5+exqRkdsE24Du3b3MHpvSQkub12cIbGVXM9FY29K0Yz+z/Tzp1Gkp/1/x17/2Y/DgV9i//8Bj86nVWrFjWyR2dnYCe0TEBnbv3Vtlv0aNbEQ2jUb8+MrKypg1ew5hS5fRocOzAPyS/4vZ43MYOhlNY3tDWZ+dj15XgkKjwsF7PHevxlNWLN5m/NH4XWdM44jx3r17JCaeEdiWhoWKRFQfNkSsp317YfASe+oUixaHVdsv7cZNkS0kZG6V25G8vDwSE5NITEwi+aJ5EeqjAQ9AeXEhD9JyQK1Er1KCWomL74xqPPxxkNxSHjRlKgUFD/OkNjY2rFu3ptZ+jEWv1+sJDp5Gv35/EdhTUlKYNOnNGtMqcQkJorzkqBGvcuir6DpnKYxxmhhiCHgAMnaFcythBwq1ynBZO3fGupXpDMMfCckt5VlZWbz//jzWrFllsPX28WHMmNHs2PEPs/0Yp3peetEHL6/nBbbc3Fz8/MabjMCNycnJITw8gmnT/i6wu7m5ceiraHJycriQnMzphEQO/fMIN2/eMHusUBnwPByfLu0qd2J2AXqaew1BZWVtqHMdNpfk8HHoy8tq9GvqB/fm5EkMeeUVk+13RkWxc+euGv0GBQYQFBhQZb2TSztKSkpq9FMVv+uMaRwxVpZ3Ru0m9tQpQd2HCz+glYOj2b5VKmHez1iUxcXFjB3rT3pmhtk+l61YyfKVqygrEwuiadOm9Ondm3khczmTGMdHH62mRYvmZvk1FfCU/usqmgZ26MvL+ffeUBQadcWsqVGjamCNQ+/xZvk2FZW7uLjQo4eXycv4uf1eSG4pr2Tq1HfIz883lBtotXz88TqTD7ouKJVKlOraLxirVq3B2+clwsMjSE8Xp5WgQgwjhg8nMSFetHUwhXHAk/dtLNqGTrj6zgSgMPMK+de/R69Wgqpiv9msx1A0DR/f3hugoKCAQ4cOP1afdUVyS3klubm5/H1aMFs2bzLYPDw8CHhjEhs2flpjf+OlPCnpLD16PEzbaDQatkV+zoCBr3D9+vVajS01NZXQsCUsXrIU7xdeYOSoVxnk6yt6q6XVWrF500b6DxjEjxdNv68WBTxFhVjpGqKwVGNl35rG7XqQdy2J63uW0mXObkCBAj2goK3fh1zeEGTSbyWmlvLU1FRu375jKJeUlvDTpUt88cU2s/PGVSXYKzG1qtQGyQoT4OjRY+zZt4/hQx++bpw9exYxJ2p+I2Q8s56MiyPmxAlC5s422Bo3bsyObV8wYOBgs7+QR9Hr9cTFxxMXH0+w5bu80LMnoYsW4OTkZGijUql4KyiQwLemmPRhHPDcjT9MYzs3Q9n55WAurPOjvKSQtMMRtB401VCndWyLzTPdyb8izGQ8iqkVZsPGTXKCvb689977ZGVlGcoWFhZ88nGE6IGbc1ghIuJj9kZHC2wuLi5s3/q5KNleW4qLizl+4gQv9e3PzZvC1JKnp6fJPsYBT1FmKrf2b0RhoUZhoam4LDW07h8IQM43h3igy/t1r1kRpbuOnY9CVb+xSxHJC7Og4BeCprwtsHXo8CdcXV0FtqoCKePyO+8Ec/78eUGdu7s7a9asrHYcPt69mDF9muGqTJ4bU1h4n927hYl6R8eWovGYCniuf7aQ4vw7ZF84ChYq9BoVaFTYuvXFqmkr0Ou59vkcUCkNl8LSktaDTc/GTzKSFyZAYmIS27ebnyqqjtLSUvzGThAFLsOGDGH69Heq7Ne2rSvBwdMM18ED++ncsZPJtg4ODoLy7dtZohndOODJSThIQcoPAGTGbEKvAoVl5ayppq1/GCgU6G79m7xLp1GoK0SrUKto+sIQLO1b1eo5SJ0nQpgAIfMXkJ6Z+Vh85efnMfI1P0EiH2Bm8HQGDvQ12SfxTJKgrNVasWFDuCgN5ebmxvDhwiN4588LT2KZCnjSd6zkqXbPYdO5BwoLLalRS1BoVGChBo0aS/uW2HWtiPCvb1+MXql4OHOqlbQLWAaPKWMhBcwKfox/7d49e2JZxZ7sy127SU9Pq//IjNDpCgkMnMKB6D2PJWWUmprKOP+/EbXzH4Lc3fp1a7l9O0u03F++fIX4+NN4e/c02FxdXYneu5vs7Gx+/jkVlUqJh4eH6LOMswiiNzxR4TgMC6BZ39cAKP3PXS6FjKE4LxOr5hWBlAJwHjuXe8nxlJfouLFtEc4TPjDUWTk4Y+fZj9xvjtbnsZjN857uzJg+TWRPy8jgyJFjdQomH6VOx968vXsKvqBHSTp79jcRJlSkKD79bLPoDGVdSUo6Q/DMWaxZ9fAUk6WlJdu3bqFvP1/RfUyf8S779+3BwaGFwG5vb4+9vT2mCA1byrlz5wxlUwHPnZhddFl/3GDTNLKl4bMeXPtsDp3m74Rf00N69DiPD+HnTXPIPfc1LV6ehFWLNhXVgPPEBdz7IY7yktqd/awLHh4eJn+EABnBtxgx6jVSU1Pr7P+JWcorCQ0N48aNml/3mXpXboqdO3exbIUw8LGxsWHXl9tEZzjT09N4efBgtm3bUePfJeXn5xMUNJXw8PUGm9JCS+sxwQ/HVF5G6ich6MvLKCsUnkAqKy6iODudW8ciDftMhYUGW68+aB3bgV5Pysqgh+/Rf91vOk8IqXZc/wscHVuyfOmSmhtWw28uTJ2uSHDVl5KSEgIC3hIl0OvD6tVrGef/N06fTjIkhl1cXNiyeZMojZSZeYuZs97jmWc7M37CRNauXcfe6GhOn04iKeksp+Liefe9OXTz6M6+/cIT5w5DJ2Nh24zykmLyfognJexN7v9ckXjPjP6Ukrt3KC8p4u6ZY+Sdq5hBMw98QsqaqZSV6gz7zfbvRqBQKCnNz+H7qX3Iv/wtqFSgVmL75/40aFPzn3781ri5PVev/gr5H7fKSJEnbimX+f9AFqaMJJGFKSNJZGHKSBJZmDKSRBamjCSRhSkjSWRhykgSWZgykkQWpowkkYUpI0lkYcpIElmYMpJEFqaMJJGFKSNJZGHKSBJZmDKSRBamjCT5LwaRhw4PhSO4AAAAAElFTkSuQmCC;" vertex="1" parent="1">
          <mxGeometry x="100.4" y="4994" width="150.04" height="47" as="geometry" />
        </mxCell>
        <mxCell id="oGBp75-06O2wuK81VP2u-50" value="&lt;font style=&quot;font-size: 24px;&quot;&gt;LINKSAFE Policies&lt;/font&gt;" style="rounded=0;whiteSpace=wrap;html=1;strokeColor=none;" vertex="1" parent="1">
          <mxGeometry x="96.4" y="5089" width="233" height="67" as="geometry" />
        </mxCell>
        <mxCell id="oGBp75-06O2wuK81VP2u-51" value="&lt;font style=&quot;font-size: 18px;&quot;&gt;Search by name and decription ...&lt;/font&gt;" style="rounded=1;whiteSpace=wrap;html=1;align=center;" vertex="1" parent="1">
          <mxGeometry x="107.4" y="5206.5" width="371" height="54" as="geometry" />
        </mxCell>
        <mxCell id="oGBp75-06O2wuK81VP2u-52" value="" style="shape=image;verticalLabelPosition=bottom;labelBackgroundColor=default;verticalAlign=top;aspect=fixed;imageAspect=0;image=data:image/png,iVBORw0KGgoAAAANSUhEUgAAACUAAAAbCAYAAAD77kbeAAAABHNCSVQICAgIfAhkiAAAABl0RVh0U29mdHdhcmUAZ25vbWUtc2NyZWVuc2hvdO8Dvz4AAAAtdEVYdENyZWF0aW9uIFRpbWUATW9uIDAxIEp1bCAyMDI0IDAyOjI3OjI4IFBNICswN8JhLMoAAAHDSURBVEiJ7dbNTxNBGMfxL7t7o6eumGwVNmq2lFPTmjRqUkwJFpiTF/17/GM4eJSEG8GXeACaSi0NGg+kAqH7cmCOtGx29WAwIVa7ZZu1h/6uz7OTT2aezM5UsVT+wZhF+d+AfpmgomaCipqxRGnDfjBrmmRzC+i6ThAEuLbNYesAKeXIUKpxx3wVtbkqBMsrq3QvLrA7HXrdLnP37vN0aYnLXo/O2dlIUJF3qioEDyyL1+vrnB5/v1bLF4pUhcD3fZqN/dioSDM1a5rkC0U232z8AQJoNvb5sL3NYqWCosQf00grZHMLtI+O+oKuUtvdQVVVrPlcMihd13Fse2Cf57mk9XQyqCAI0LTB46coGmEQJoNybZu7c+Y/e6ZTKYyMgeMM3tGRoA5bBxgZg3yh+NeeZ2sCz3E4breTQUkpebe1RVUISo8eX6tNp1I8f/ESK5vl9OQkNgiGuKfqtT1832exUuFJuYznuiiqhpEx8ByHT7UaD0slpDynUa8ng4Jf91Gr+RlrPkdaTxMGIR/fv/19ZFKes7yyChALNvS/LwxDvn390rd2Bbk1c/vGoBuhBiXu0cGYPl0mqKiZoKJmLFE/AeScmQjUcPQpAAAAAElFTkSuQmCC;" vertex="1" parent="1">
          <mxGeometry x="112.4" y="5219" width="37" height="27" as="geometry" />
        </mxCell>
        <mxCell id="oGBp75-06O2wuK81VP2u-53" value="&lt;font style=&quot;font-size: 18px;&quot;&gt;All&amp;nbsp; &amp;nbsp; &amp;nbsp;Active&amp;nbsp; &amp;nbsp; Inactive&lt;/font&gt;" style="rounded=1;whiteSpace=wrap;html=1;" vertex="1" parent="1">
          <mxGeometry x="516.4" y="5206.5" width="210" height="53" as="geometry" />
        </mxCell>
        <mxCell id="oGBp75-06O2wuK81VP2u-54" value="" style="endArrow=none;html=1;rounded=0;entryX=0.25;entryY=0;entryDx=0;entryDy=0;exitX=0.25;exitY=1;exitDx=0;exitDy=0;" edge="1" parent="1" source="oGBp75-06O2wuK81VP2u-53" target="oGBp75-06O2wuK81VP2u-53">
          <mxGeometry width="50" height="50" relative="1" as="geometry">
            <mxPoint x="630.4" y="5596" as="sourcePoint" />
            <mxPoint x="680.4" y="5546" as="targetPoint" />
          </mxGeometry>
        </mxCell>
        <mxCell id="oGBp75-06O2wuK81VP2u-55" value="" style="endArrow=none;html=1;rounded=0;entryX=0.583;entryY=-0.043;entryDx=0;entryDy=0;entryPerimeter=0;exitX=0.586;exitY=0.992;exitDx=0;exitDy=0;exitPerimeter=0;" edge="1" parent="1" source="oGBp75-06O2wuK81VP2u-53" target="oGBp75-06O2wuK81VP2u-53">
          <mxGeometry width="50" height="50" relative="1" as="geometry">
            <mxPoint x="877.4" y="5250" as="sourcePoint" />
            <mxPoint x="819.4" y="5206" as="targetPoint" />
          </mxGeometry>
        </mxCell>
        <mxCell id="oGBp75-06O2wuK81VP2u-56" value="&lt;font style=&quot;font-size: 18px;&quot;&gt;10 rows per page&lt;/font&gt;" style="rounded=1;whiteSpace=wrap;html=1;" vertex="1" parent="1">
          <mxGeometry x="780.4" y="5207" width="165" height="53" as="geometry" />
        </mxCell>
        <mxCell id="oGBp75-06O2wuK81VP2u-57" value="&lt;font style=&quot;font-size: 18px;&quot;&gt;+ Add policy&lt;/font&gt;" style="rounded=1;whiteSpace=wrap;html=1;" vertex="1" parent="1">
          <mxGeometry x="1267.4" y="5208.5" width="191" height="52" as="geometry" />
        </mxCell>
        <mxCell id="oGBp75-06O2wuK81VP2u-58" value="&lt;font style=&quot;font-size: 18px;&quot;&gt;Name&lt;span style=&quot;white-space: pre;&quot;&gt;&#x9;&lt;/span&gt;&lt;span style=&quot;white-space: pre;&quot;&gt;&#x9;&lt;/span&gt;&lt;span style=&quot;white-space: pre;&quot;&gt;&#x9;&lt;/span&gt;&lt;span style=&quot;white-space: pre;&quot;&gt;&#x9;&lt;/span&gt;&lt;span style=&quot;white-space: pre;&quot;&gt;&#x9;&lt;/span&gt;&lt;span style=&quot;white-space: pre;&quot;&gt;&#x9;&lt;/span&gt;&lt;span style=&quot;white-space: pre;&quot;&gt;&#x9;&lt;/span&gt;&lt;span style=&quot;white-space: pre;&quot;&gt;&#x9;&lt;/span&gt;Active&lt;span style=&quot;white-space: pre;&quot;&gt;&#x9;&lt;span style=&quot;white-space: pre;&quot;&gt;&#x9;&lt;/span&gt;&lt;span style=&quot;white-space: pre;&quot;&gt;&#x9;&lt;/span&gt;&lt;/span&gt;&amp;nbsp;Source Zone &lt;span style=&quot;white-space: pre;&quot;&gt;&#x9;&lt;/span&gt;&lt;span style=&quot;white-space: pre;&quot;&gt;&#x9;&lt;/span&gt;&lt;span style=&quot;white-space: pre;&quot;&gt;&#x9;&lt;/span&gt;Destination&amp;nbsp;Zone&lt;span style=&quot;white-space: pre;&quot;&gt;&#x9;&lt;span style=&quot;white-space: pre;&quot;&gt;&#x9;&lt;/span&gt;&lt;/span&gt;&lt;span style=&quot;white-space: pre;&quot;&gt;&#x9;&lt;/span&gt; Protocol&lt;span style=&quot;white-space: pre;&quot;&gt;&#x9;&lt;span style=&quot;white-space: pre;&quot;&gt;&#x9;&lt;/span&gt;&lt;span style=&quot;white-space: pre;&quot;&gt;&#x9;&lt;/span&gt;&lt;span style=&quot;white-space: pre;&quot;&gt;&#x9;&lt;/span&gt;&lt;/span&gt;&lt;span style=&quot;white-space: pre;&quot;&gt;&#x9;&lt;/span&gt;&lt;span style=&quot;white-space: pre;&quot;&gt;&#x9;&lt;/span&gt;&lt;/font&gt;" style="rounded=0;whiteSpace=wrap;html=1;" vertex="1" parent="1">
          <mxGeometry x="78.4" y="5281" width="1396" height="53" as="geometry" />
        </mxCell>
        <mxCell id="oGBp75-06O2wuK81VP2u-59" value="" style="rounded=1;whiteSpace=wrap;html=1;" vertex="1" parent="1">
          <mxGeometry x="975.4" y="5206.5" width="63" height="52" as="geometry" />
        </mxCell>
        <mxCell id="oGBp75-06O2wuK81VP2u-60" value="" style="shape=image;html=1;verticalAlign=top;verticalLabelPosition=bottom;labelBackgroundColor=#ffffff;imageAspect=0;aspect=fixed;image=https://cdn0.iconfinder.com/data/icons/evericons-24px-vol-1/24/refresh-ccw-128.png" vertex="1" parent="1">
          <mxGeometry x="991.52" y="5218.12" width="30.75" height="30.75" as="geometry" />
        </mxCell>
        <mxCell id="oGBp75-06O2wuK81VP2u-61" value="&lt;div style=&quot;text-align: left;&quot;&gt;&lt;span style=&quot;font-size: 14px; white-space-collapse: preserve; background-color: initial;&quot;&gt;Create rules to manage access in your network and define what peers can connect.&lt;/span&gt;&lt;/div&gt;&lt;span&gt;&lt;div style=&quot;text-align: left;&quot;&gt;&lt;span style=&quot;font-size: 14px; white-space-collapse: preserve; background-color: initial;&quot;&gt;Learn more about Policies in our documentation.&lt;/span&gt;&lt;/div&gt;&lt;/span&gt;" style="rounded=1;whiteSpace=wrap;html=1;strokeColor=none;" vertex="1" parent="1">
          <mxGeometry x="107.4" y="5133.5" width="523" height="60" as="geometry" />
        </mxCell>
        <mxCell id="oGBp75-06O2wuK81VP2u-63" value="&lt;font style=&quot;font-size: 24px;&quot;&gt;Nameservers&lt;/font&gt;" style="rounded=1;whiteSpace=wrap;html=1;strokeColor=none;" vertex="1" parent="1">
          <mxGeometry x="911.4" y="4992" width="200.13" height="51" as="geometry" />
        </mxCell>
        <mxCell id="oGBp75-06O2wuK81VP2u-64" value="&lt;span style=&quot;font-size: 24px;&quot;&gt;DNS Settings&lt;/span&gt;" style="rounded=1;whiteSpace=wrap;html=1;strokeColor=none;" vertex="1" parent="1">
          <mxGeometry x="1158.4" y="4992" width="200.13" height="51" as="geometry" />
        </mxCell>
        <mxCell id="oGBp75-06O2wuK81VP2u-65" value="&lt;font style=&quot;font-size: 24px;&quot;&gt;Policies&lt;/font&gt;" style="rounded=1;whiteSpace=wrap;html=1;strokeColor=none;" vertex="1" parent="1">
          <mxGeometry x="483.3999999999999" y="4983" width="151" height="60" as="geometry" />
        </mxCell>
        <mxCell id="oGBp75-06O2wuK81VP2u-66" value="&lt;font style=&quot;font-size: 24px;&quot;&gt;Policy 1&lt;/font&gt;" style="rounded=1;whiteSpace=wrap;html=1;strokeColor=none;" vertex="1" parent="1">
          <mxGeometry x="115.42" y="5340" width="120" height="60" as="geometry" />
        </mxCell>
        <mxCell id="oGBp75-06O2wuK81VP2u-67" value="" style="fillColor=#36B37E;strokeColor=none;rounded=1;arcSize=50;sketch=0;hachureGap=4;pointerEvents=0;fontFamily=Architects Daughter;fontSource=https%3A%2F%2Ffonts.googleapis.com%2Fcss%3Ffamily%3DArchitects%2BDaughter;fontSize=20;" vertex="1" parent="1">
          <mxGeometry x="520.4" y="5363" width="42" height="23" as="geometry" />
        </mxCell>
        <mxCell id="oGBp75-06O2wuK81VP2u-68" value="" style="shape=ellipse;strokeColor=none;fillColor=#ffffff;sketch=0;hachureGap=4;pointerEvents=0;fontFamily=Architects Daughter;fontSource=https%3A%2F%2Ffonts.googleapis.com%2Fcss%3Ffamily%3DArchitects%2BDaughter;fontSize=20;" vertex="1" parent="oGBp75-06O2wuK81VP2u-67">
          <mxGeometry x="1" y="0.5" width="12" height="12" relative="1" as="geometry">
            <mxPoint x="-14" y="-6" as="offset" />
          </mxGeometry>
        </mxCell>
        <mxCell id="oGBp75-06O2wuK81VP2u-69" value="" style="html=1;shadow=0;dashed=0;shape=mxgraph.atlassian.check;strokeColor=#ffffff;sketch=1;hachureGap=4;pointerEvents=0;fontFamily=Architects Daughter;fontSource=https%3A%2F%2Ffonts.googleapis.com%2Fcss%3Ffamily%3DArchitects%2BDaughter;fontSize=20;" vertex="1" parent="oGBp75-06O2wuK81VP2u-67">
          <mxGeometry y="0.5" width="6" height="5" relative="1" as="geometry">
            <mxPoint x="4" y="-3" as="offset" />
          </mxGeometry>
        </mxCell>
        <mxCell id="oGBp75-06O2wuK81VP2u-70" value="" style="endArrow=none;html=1;rounded=0;exitX=0;exitY=0.527;exitDx=0;exitDy=0;exitPerimeter=0;entryX=1.004;entryY=0.526;entryDx=0;entryDy=0;entryPerimeter=0;" edge="1" parent="1" source="oGBp75-06O2wuK81VP2u-47" target="oGBp75-06O2wuK81VP2u-47">
          <mxGeometry width="50" height="50" relative="1" as="geometry">
            <mxPoint x="625.4" y="5390" as="sourcePoint" />
            <mxPoint x="675.4" y="5340" as="targetPoint" />
          </mxGeometry>
        </mxCell>
        <mxCell id="oGBp75-06O2wuK81VP2u-71" value="" style="rounded=0;whiteSpace=wrap;html=1;" vertex="1" parent="1">
          <mxGeometry x="76" y="5930" width="1403" height="850" as="geometry" />
        </mxCell>
        <mxCell id="oGBp75-06O2wuK81VP2u-72" value="" style="endArrow=none;html=1;rounded=0;exitX=-0.001;exitY=0.107;exitDx=0;exitDy=0;exitPerimeter=0;entryX=1.003;entryY=0.109;entryDx=0;entryDy=0;entryPerimeter=0;" edge="1" parent="1" source="oGBp75-06O2wuK81VP2u-71" target="oGBp75-06O2wuK81VP2u-71">
          <mxGeometry width="50" height="50" relative="1" as="geometry">
            <mxPoint x="580" y="6354" as="sourcePoint" />
            <mxPoint x="630" y="6304" as="targetPoint" />
          </mxGeometry>
        </mxCell>
        <mxCell id="oGBp75-06O2wuK81VP2u-73" value="" style="shape=image;verticalLabelPosition=bottom;labelBackgroundColor=default;verticalAlign=top;aspect=fixed;imageAspect=0;image=data:image/png,iVBORw0KGgoAAAANSUhEUgAAAKYAAAA0CAYAAAAAJkM/AAAABHNCSVQICAgIfAhkiAAAABl0RVh0U29mdHdhcmUAZ25vbWUtc2NyZWVuc2hvdO8Dvz4AAAAtdEVYdENyZWF0aW9uIFRpbWUATW9uIDAxIEp1bCAyMDI0IDAxOjUwOjEyIFBNICswN0vu1RAAAA0bSURBVHic7Zx5XJVVGse/dwOuoSiIC6gsmk0uiQKhY0im4yhabqkpqTiaBGmTopkamibiviSSmZnhMikuaDouoSggaGnlkKnohMqiCChMyGUR7vxBXH3ve4EL2PTavN/P5/3jPOec5573vb97znme94CihUNrPTIyEkP5ew9ARsYUsjBlJIksTBlJIgtTRpLIwpSRJLIwZSSJLEwZSSILU0aSyMKUkSSyMGUkidqcRhlp18nKusPRo8dYtHgJ9+8XmOV82NAhfLR2Nbm5uezbf4APPlgoqA8LXYS//zhKSkpITk4m5kQs4eERPHjwoEbfCXGxWFtbE5eQwMKFoeTk5Ajqb6ReIys7m4MHD7F8+Qp0uqIqfanVaubOnc0g3wE4OjqiUCgAiNiwkQ8/XCRqr9FoGOg7gBd7v0jnjp1o1cqBRo0aUVZWRuzJk0Tt3svhw0coLS015zFVidJCi+OoqaRtXVZnH9bWDbl65WKt+x04cJCAwCBD+acfL9CkSROz+xcWFtL26T/V+nMrMUuYAC1btsDffxxPP/00r44cZfYHqFQqmjVrRsAbk7B+6ilmzJwlamNhYYG7uzvu7u509/LCf8JEioqqFlIlzZs3Z8Tw4XTt0oXeffqJBN3a0ZHAgMk4tW7DxDcmm/ShVCqJjPyc3j4+AnvM8eOEhi4Wte/YsQPr133EM8+0N3mvffv0oW+fPty8eZPAt97mu+++q/E+qsJh6GSa9xvNvbNfU5DyfZ186PV1Owpx7dq1OvWrJDn5x3r1N2spf/TmevbsQbdu3er0YX5jRmNpaVltG59e3ixauKBWftu1a8ewYUOrrPf17U/Hjh1M1s2fHyIS5ZUrKQS8OYXy8nKBvX379uzbE2VSlMa0adOGqKgv6dqlixl3IMbSvhXNB7wOgPPEEBRKVZ381IWcnBy2RG6tc3+drojQsKX1GoPZM+ajeHTrWueZwNa2Cbdu3a62jZ/faA4fPsLx2Fiz/Xp5erJrV1SV9Z6eHly8+JPANnLkCCZPmiiw3b17l7Fj/SksvC/ysW7dGho2bCiwXb16lZNx8djZ2fJir17Y2toa6hpYWfHJpxvw6fUSuiKd2fcC4DRxHgpVxddj5eBC0+6DyE7cXysfVRFz/DgXfviXyF6OnkuXLnMy9lSN4z137hynTsWL7GkZGcTEHCc3N7deYzRLmJV7rkostdp6fWglSmXVE/batavo6d2b/Pw8s3zZ2NhU69vGprGg3LVLF1YsWyKwlZaW8vrr40nLSBf5f/55T57r1Elg27R5M/PmLTCsKFqtFStWLGPYkCGGNq0dHRn92ig2b9li1n0ANPHqR6OOnoayvqAIe6c+5CR9hV5fXk1PMcbfHcDXMSeIrMeMCPDNt+dZsWp1vXxUh2Sjcjs7O9auXvGb+HZ0dGDr1i1oNBqBffr0mXx/4YLJPqa2AsuXrxZsc3S6It5+exqRkdsE24Du3b3MHpvSQkub12cIbGVXM9FY29K0Yz+z/Tzp1Gkp/1/x17/2Y/DgV9i//8Bj86nVWrFjWyR2dnYCe0TEBnbv3Vtlv0aNbEQ2jUb8+MrKypg1ew5hS5fRocOzAPyS/4vZ43MYOhlNY3tDWZ+dj15XgkKjwsF7PHevxlNWLN5m/NH4XWdM44jx3r17JCaeEdiWhoWKRFQfNkSsp317YfASe+oUixaHVdsv7cZNkS0kZG6V25G8vDwSE5NITEwi+aJ5EeqjAQ9AeXEhD9JyQK1Er1KCWomL74xqPPxxkNxSHjRlKgUFD/OkNjY2rFu3ptZ+jEWv1+sJDp5Gv35/EdhTUlKYNOnNGtMqcQkJorzkqBGvcuir6DpnKYxxmhhiCHgAMnaFcythBwq1ynBZO3fGupXpDMMfCckt5VlZWbz//jzWrFllsPX28WHMmNHs2PEPs/0Yp3peetEHL6/nBbbc3Fz8/MabjMCNycnJITw8gmnT/i6wu7m5ceiraHJycriQnMzphEQO/fMIN2/eMHusUBnwPByfLu0qd2J2AXqaew1BZWVtqHMdNpfk8HHoy8tq9GvqB/fm5EkMeeUVk+13RkWxc+euGv0GBQYQFBhQZb2TSztKSkpq9FMVv+uMaRwxVpZ3Ru0m9tQpQd2HCz+glYOj2b5VKmHez1iUxcXFjB3rT3pmhtk+l61YyfKVqygrEwuiadOm9Ondm3khczmTGMdHH62mRYvmZvk1FfCU/usqmgZ26MvL+ffeUBQadcWsqVGjamCNQ+/xZvk2FZW7uLjQo4eXycv4uf1eSG4pr2Tq1HfIz883lBtotXz88TqTD7ouKJVKlOraLxirVq3B2+clwsMjSE8Xp5WgQgwjhg8nMSFetHUwhXHAk/dtLNqGTrj6zgSgMPMK+de/R69Wgqpiv9msx1A0DR/f3hugoKCAQ4cOP1afdUVyS3klubm5/H1aMFs2bzLYPDw8CHhjEhs2flpjf+OlPCnpLD16PEzbaDQatkV+zoCBr3D9+vVajS01NZXQsCUsXrIU7xdeYOSoVxnk6yt6q6XVWrF500b6DxjEjxdNv68WBTxFhVjpGqKwVGNl35rG7XqQdy2J63uW0mXObkCBAj2goK3fh1zeEGTSbyWmlvLU1FRu375jKJeUlvDTpUt88cU2s/PGVSXYKzG1qtQGyQoT4OjRY+zZt4/hQx++bpw9exYxJ2p+I2Q8s56MiyPmxAlC5s422Bo3bsyObV8wYOBgs7+QR9Hr9cTFxxMXH0+w5bu80LMnoYsW4OTkZGijUql4KyiQwLemmPRhHPDcjT9MYzs3Q9n55WAurPOjvKSQtMMRtB401VCndWyLzTPdyb8izGQ8iqkVZsPGTXKCvb689977ZGVlGcoWFhZ88nGE6IGbc1ghIuJj9kZHC2wuLi5s3/q5KNleW4qLizl+4gQv9e3PzZvC1JKnp6fJPsYBT1FmKrf2b0RhoUZhoam4LDW07h8IQM43h3igy/t1r1kRpbuOnY9CVb+xSxHJC7Og4BeCprwtsHXo8CdcXV0FtqoCKePyO+8Ec/78eUGdu7s7a9asrHYcPt69mDF9muGqTJ4bU1h4n927hYl6R8eWovGYCniuf7aQ4vw7ZF84ChYq9BoVaFTYuvXFqmkr0Ou59vkcUCkNl8LSktaDTc/GTzKSFyZAYmIS27ebnyqqjtLSUvzGThAFLsOGDGH69Heq7Ne2rSvBwdMM18ED++ncsZPJtg4ODoLy7dtZohndOODJSThIQcoPAGTGbEKvAoVl5ayppq1/GCgU6G79m7xLp1GoK0SrUKto+sIQLO1b1eo5SJ0nQpgAIfMXkJ6Z+Vh85efnMfI1P0EiH2Bm8HQGDvQ12SfxTJKgrNVasWFDuCgN5ebmxvDhwiN4588LT2KZCnjSd6zkqXbPYdO5BwoLLalRS1BoVGChBo0aS/uW2HWtiPCvb1+MXql4OHOqlbQLWAaPKWMhBcwKfox/7d49e2JZxZ7sy127SU9Pq//IjNDpCgkMnMKB6D2PJWWUmprKOP+/EbXzH4Lc3fp1a7l9O0u03F++fIX4+NN4e/c02FxdXYneu5vs7Gx+/jkVlUqJh4eH6LOMswiiNzxR4TgMC6BZ39cAKP3PXS6FjKE4LxOr5hWBlAJwHjuXe8nxlJfouLFtEc4TPjDUWTk4Y+fZj9xvjtbnsZjN857uzJg+TWRPy8jgyJFjdQomH6VOx968vXsKvqBHSTp79jcRJlSkKD79bLPoDGVdSUo6Q/DMWaxZ9fAUk6WlJdu3bqFvP1/RfUyf8S779+3BwaGFwG5vb4+9vT2mCA1byrlz5wxlUwHPnZhddFl/3GDTNLKl4bMeXPtsDp3m74Rf00N69DiPD+HnTXPIPfc1LV6ehFWLNhXVgPPEBdz7IY7yktqd/awLHh4eJn+EABnBtxgx6jVSU1Pr7P+JWcorCQ0N48aNml/3mXpXboqdO3exbIUw8LGxsWHXl9tEZzjT09N4efBgtm3bUePfJeXn5xMUNJXw8PUGm9JCS+sxwQ/HVF5G6ich6MvLKCsUnkAqKy6iODudW8ciDftMhYUGW68+aB3bgV5Pysqgh+/Rf91vOk8IqXZc/wscHVuyfOmSmhtWw28uTJ2uSHDVl5KSEgIC3hIl0OvD6tVrGef/N06fTjIkhl1cXNiyeZMojZSZeYuZs97jmWc7M37CRNauXcfe6GhOn04iKeksp+Liefe9OXTz6M6+/cIT5w5DJ2Nh24zykmLyfognJexN7v9ckXjPjP6Ukrt3KC8p4u6ZY+Sdq5hBMw98QsqaqZSV6gz7zfbvRqBQKCnNz+H7qX3Iv/wtqFSgVmL75/40aFPzn3781ri5PVev/gr5H7fKSJEnbimX+f9AFqaMJJGFKSNJZGHKSBJZmDKSRBamjCSRhSkjSWRhykgSWZgykkQWpowkkYUpI0lkYcpIElmYMpJEFqaMJJGFKSNJZGHKSBJZmDKSRBamjCT5LwaRhw4PhSO4AAAAAElFTkSuQmCC;" vertex="1" parent="1">
          <mxGeometry x="102" y="5955" width="150.04" height="47" as="geometry" />
        </mxCell>
        <mxCell id="oGBp75-06O2wuK81VP2u-74" value="&lt;font style=&quot;font-size: 24px;&quot;&gt;LINKSAFE Policies&lt;/font&gt;" style="rounded=0;whiteSpace=wrap;html=1;strokeColor=none;" vertex="1" parent="1">
          <mxGeometry x="98" y="6050" width="233" height="67" as="geometry" />
        </mxCell>
        <mxCell id="oGBp75-06O2wuK81VP2u-75" value="&lt;font style=&quot;font-size: 18px;&quot;&gt;Search by name and decription ...&lt;/font&gt;" style="rounded=1;whiteSpace=wrap;html=1;align=center;" vertex="1" parent="1">
          <mxGeometry x="109" y="6167.5" width="371" height="54" as="geometry" />
        </mxCell>
        <mxCell id="oGBp75-06O2wuK81VP2u-76" value="" style="shape=image;verticalLabelPosition=bottom;labelBackgroundColor=default;verticalAlign=top;aspect=fixed;imageAspect=0;image=data:image/png,iVBORw0KGgoAAAANSUhEUgAAACUAAAAbCAYAAAD77kbeAAAABHNCSVQICAgIfAhkiAAAABl0RVh0U29mdHdhcmUAZ25vbWUtc2NyZWVuc2hvdO8Dvz4AAAAtdEVYdENyZWF0aW9uIFRpbWUATW9uIDAxIEp1bCAyMDI0IDAyOjI3OjI4IFBNICswN8JhLMoAAAHDSURBVEiJ7dbNTxNBGMfxL7t7o6eumGwVNmq2lFPTmjRqUkwJFpiTF/17/GM4eJSEG8GXeACaSi0NGg+kAqH7cmCOtGx29WAwIVa7ZZu1h/6uz7OTT2aezM5UsVT+wZhF+d+AfpmgomaCipqxRGnDfjBrmmRzC+i6ThAEuLbNYesAKeXIUKpxx3wVtbkqBMsrq3QvLrA7HXrdLnP37vN0aYnLXo/O2dlIUJF3qioEDyyL1+vrnB5/v1bLF4pUhcD3fZqN/dioSDM1a5rkC0U232z8AQJoNvb5sL3NYqWCosQf00grZHMLtI+O+oKuUtvdQVVVrPlcMihd13Fse2Cf57mk9XQyqCAI0LTB46coGmEQJoNybZu7c+Y/e6ZTKYyMgeMM3tGRoA5bBxgZg3yh+NeeZ2sCz3E4breTQUkpebe1RVUISo8eX6tNp1I8f/ESK5vl9OQkNgiGuKfqtT1832exUuFJuYznuiiqhpEx8ByHT7UaD0slpDynUa8ng4Jf91Gr+RlrPkdaTxMGIR/fv/19ZFKes7yyChALNvS/LwxDvn390rd2Bbk1c/vGoBuhBiXu0cGYPl0mqKiZoKJmLFE/AeScmQjUcPQpAAAAAElFTkSuQmCC;" vertex="1" parent="1">
          <mxGeometry x="114" y="6180" width="37" height="27" as="geometry" />
        </mxCell>
        <mxCell id="oGBp75-06O2wuK81VP2u-77" value="&lt;font style=&quot;font-size: 18px;&quot;&gt;All&amp;nbsp; &amp;nbsp; &amp;nbsp;Active&amp;nbsp; &amp;nbsp; Inactive&lt;/font&gt;" style="rounded=1;whiteSpace=wrap;html=1;" vertex="1" parent="1">
          <mxGeometry x="518" y="6167.5" width="210" height="53" as="geometry" />
        </mxCell>
        <mxCell id="oGBp75-06O2wuK81VP2u-78" value="" style="endArrow=none;html=1;rounded=0;entryX=0.25;entryY=0;entryDx=0;entryDy=0;exitX=0.25;exitY=1;exitDx=0;exitDy=0;" edge="1" parent="1" source="oGBp75-06O2wuK81VP2u-77" target="oGBp75-06O2wuK81VP2u-77">
          <mxGeometry width="50" height="50" relative="1" as="geometry">
            <mxPoint x="632" y="6557" as="sourcePoint" />
            <mxPoint x="682" y="6507" as="targetPoint" />
          </mxGeometry>
        </mxCell>
        <mxCell id="oGBp75-06O2wuK81VP2u-79" value="" style="endArrow=none;html=1;rounded=0;entryX=0.583;entryY=-0.043;entryDx=0;entryDy=0;entryPerimeter=0;exitX=0.586;exitY=0.992;exitDx=0;exitDy=0;exitPerimeter=0;" edge="1" parent="1" source="oGBp75-06O2wuK81VP2u-77" target="oGBp75-06O2wuK81VP2u-77">
          <mxGeometry width="50" height="50" relative="1" as="geometry">
            <mxPoint x="879" y="6211" as="sourcePoint" />
            <mxPoint x="821" y="6167" as="targetPoint" />
          </mxGeometry>
        </mxCell>
        <mxCell id="oGBp75-06O2wuK81VP2u-80" value="&lt;font style=&quot;font-size: 18px;&quot;&gt;10 rows per page&lt;/font&gt;" style="rounded=1;whiteSpace=wrap;html=1;" vertex="1" parent="1">
          <mxGeometry x="782" y="6168" width="165" height="53" as="geometry" />
        </mxCell>
        <mxCell id="oGBp75-06O2wuK81VP2u-81" value="&lt;font style=&quot;font-size: 18px;&quot;&gt;+ Add policy&lt;/font&gt;" style="rounded=1;whiteSpace=wrap;html=1;" vertex="1" parent="1">
          <mxGeometry x="1269" y="6169.5" width="191" height="52" as="geometry" />
        </mxCell>
        <mxCell id="oGBp75-06O2wuK81VP2u-82" value="&lt;font style=&quot;font-size: 18px;&quot;&gt;Name&lt;span style=&quot;white-space: pre;&quot;&gt;&#x9;&lt;/span&gt;&lt;span style=&quot;white-space: pre;&quot;&gt;&#x9;&lt;/span&gt;&lt;span style=&quot;white-space: pre;&quot;&gt;&#x9;&lt;/span&gt;&lt;span style=&quot;white-space: pre;&quot;&gt;&#x9;&lt;/span&gt;&lt;span style=&quot;white-space: pre;&quot;&gt;&#x9;&lt;/span&gt;&lt;span style=&quot;white-space: pre;&quot;&gt;&#x9;&lt;/span&gt;&lt;span style=&quot;white-space: pre;&quot;&gt;&#x9;&lt;/span&gt;&lt;span style=&quot;white-space: pre;&quot;&gt;&#x9;&lt;/span&gt;Active&lt;span style=&quot;white-space: pre;&quot;&gt;&#x9;&lt;span style=&quot;white-space: pre;&quot;&gt;&#x9;&lt;/span&gt;&lt;span style=&quot;white-space: pre;&quot;&gt;&#x9;&lt;/span&gt;&lt;/span&gt;&amp;nbsp;Source Zone &lt;span style=&quot;white-space: pre;&quot;&gt;&#x9;&lt;/span&gt;&lt;span style=&quot;white-space: pre;&quot;&gt;&#x9;&lt;/span&gt;&lt;span style=&quot;white-space: pre;&quot;&gt;&#x9;&lt;/span&gt;Destination&amp;nbsp;Zone&lt;span style=&quot;white-space: pre;&quot;&gt;&#x9;&lt;span style=&quot;white-space: pre;&quot;&gt;&#x9;&lt;/span&gt;&lt;/span&gt;&lt;span style=&quot;white-space: pre;&quot;&gt;&#x9;&lt;/span&gt; Protocol&lt;span style=&quot;white-space: pre;&quot;&gt;&#x9;&lt;span style=&quot;white-space: pre;&quot;&gt;&#x9;&lt;/span&gt;&lt;span style=&quot;white-space: pre;&quot;&gt;&#x9;&lt;/span&gt;&lt;span style=&quot;white-space: pre;&quot;&gt;&#x9;&lt;/span&gt;&lt;/span&gt;&lt;span style=&quot;white-space: pre;&quot;&gt;&#x9;&lt;/span&gt;&lt;span style=&quot;white-space: pre;&quot;&gt;&#x9;&lt;/span&gt;&lt;/font&gt;" style="rounded=0;whiteSpace=wrap;html=1;" vertex="1" parent="1">
          <mxGeometry x="80" y="6242" width="1396" height="53" as="geometry" />
        </mxCell>
        <mxCell id="oGBp75-06O2wuK81VP2u-83" value="" style="rounded=1;whiteSpace=wrap;html=1;" vertex="1" parent="1">
          <mxGeometry x="977" y="6167.5" width="63" height="52" as="geometry" />
        </mxCell>
        <mxCell id="oGBp75-06O2wuK81VP2u-84" value="" style="shape=image;html=1;verticalAlign=top;verticalLabelPosition=bottom;labelBackgroundColor=#ffffff;imageAspect=0;aspect=fixed;image=https://cdn0.iconfinder.com/data/icons/evericons-24px-vol-1/24/refresh-ccw-128.png" vertex="1" parent="1">
          <mxGeometry x="993.12" y="6179.12" width="30.75" height="30.75" as="geometry" />
        </mxCell>
        <mxCell id="oGBp75-06O2wuK81VP2u-85" value="&lt;div style=&quot;text-align: left;&quot;&gt;&lt;span style=&quot;font-size: 14px; white-space-collapse: preserve; background-color: initial;&quot;&gt;Create rules to manage access in your network and define what peers can connect.&lt;/span&gt;&lt;/div&gt;&lt;span&gt;&lt;div style=&quot;text-align: left;&quot;&gt;&lt;span style=&quot;font-size: 14px; white-space-collapse: preserve; background-color: initial;&quot;&gt;Learn more about Policies in our documentation.&lt;/span&gt;&lt;/div&gt;&lt;/span&gt;" style="rounded=1;whiteSpace=wrap;html=1;strokeColor=none;" vertex="1" parent="1">
          <mxGeometry x="109" y="6094.5" width="523" height="60" as="geometry" />
        </mxCell>
        <mxCell id="oGBp75-06O2wuK81VP2u-86" value="&lt;font style=&quot;font-size: 24px;&quot;&gt;Routes&lt;/font&gt;" style="rounded=1;whiteSpace=wrap;html=1;strokeColor=none;" vertex="1" parent="1">
          <mxGeometry x="731" y="5948.5" width="120" height="60" as="geometry" />
        </mxCell>
        <mxCell id="oGBp75-06O2wuK81VP2u-89" value="&lt;font style=&quot;font-size: 24px;&quot;&gt;Policies&lt;/font&gt;" style="rounded=1;whiteSpace=wrap;html=1;strokeColor=none;" vertex="1" parent="1">
          <mxGeometry x="484.99999999999994" y="5944" width="151" height="60" as="geometry" />
        </mxCell>
        <mxCell id="oGBp75-06O2wuK81VP2u-90" value="&lt;font style=&quot;font-size: 24px;&quot;&gt;Policy 1&lt;/font&gt;" style="rounded=1;whiteSpace=wrap;html=1;strokeColor=none;" vertex="1" parent="1">
          <mxGeometry x="117.02000000000001" y="6301" width="120" height="60" as="geometry" />
        </mxCell>
        <mxCell id="oGBp75-06O2wuK81VP2u-91" value="" style="fillColor=#36B37E;strokeColor=none;rounded=1;arcSize=50;sketch=0;hachureGap=4;pointerEvents=0;fontFamily=Architects Daughter;fontSource=https%3A%2F%2Ffonts.googleapis.com%2Fcss%3Ffamily%3DArchitects%2BDaughter;fontSize=20;" vertex="1" parent="1">
          <mxGeometry x="522" y="6324" width="42" height="23" as="geometry" />
        </mxCell>
        <mxCell id="oGBp75-06O2wuK81VP2u-92" value="" style="shape=ellipse;strokeColor=none;fillColor=#ffffff;sketch=0;hachureGap=4;pointerEvents=0;fontFamily=Architects Daughter;fontSource=https%3A%2F%2Ffonts.googleapis.com%2Fcss%3Ffamily%3DArchitects%2BDaughter;fontSize=20;" vertex="1" parent="oGBp75-06O2wuK81VP2u-91">
          <mxGeometry x="1" y="0.5" width="12" height="12" relative="1" as="geometry">
            <mxPoint x="-14" y="-6" as="offset" />
          </mxGeometry>
        </mxCell>
        <mxCell id="oGBp75-06O2wuK81VP2u-93" value="" style="html=1;shadow=0;dashed=0;shape=mxgraph.atlassian.check;strokeColor=#ffffff;sketch=1;hachureGap=4;pointerEvents=0;fontFamily=Architects Daughter;fontSource=https%3A%2F%2Ffonts.googleapis.com%2Fcss%3Ffamily%3DArchitects%2BDaughter;fontSize=20;" vertex="1" parent="oGBp75-06O2wuK81VP2u-91">
          <mxGeometry y="0.5" width="6" height="5" relative="1" as="geometry">
            <mxPoint x="4" y="-3" as="offset" />
          </mxGeometry>
        </mxCell>
        <mxCell id="oGBp75-06O2wuK81VP2u-94" value="" style="endArrow=none;html=1;rounded=0;exitX=0;exitY=0.527;exitDx=0;exitDy=0;exitPerimeter=0;entryX=1.004;entryY=0.526;entryDx=0;entryDy=0;entryPerimeter=0;" edge="1" parent="1" source="oGBp75-06O2wuK81VP2u-71" target="oGBp75-06O2wuK81VP2u-71">
          <mxGeometry width="50" height="50" relative="1" as="geometry">
            <mxPoint x="627" y="6351" as="sourcePoint" />
            <mxPoint x="677" y="6301" as="targetPoint" />
          </mxGeometry>
        </mxCell>
        <mxCell id="oGBp75-06O2wuK81VP2u-95" value="" style="rounded=0;whiteSpace=wrap;html=1;" vertex="1" parent="1">
          <mxGeometry x="81.39999999999999" y="7306" width="1403" height="850" as="geometry" />
        </mxCell>
        <mxCell id="oGBp75-06O2wuK81VP2u-96" value="" style="endArrow=none;html=1;rounded=0;exitX=-0.001;exitY=0.107;exitDx=0;exitDy=0;exitPerimeter=0;entryX=1.003;entryY=0.109;entryDx=0;entryDy=0;entryPerimeter=0;" edge="1" parent="1" source="oGBp75-06O2wuK81VP2u-95" target="oGBp75-06O2wuK81VP2u-95">
          <mxGeometry width="50" height="50" relative="1" as="geometry">
            <mxPoint x="585.4" y="7730" as="sourcePoint" />
            <mxPoint x="635.4" y="7680" as="targetPoint" />
          </mxGeometry>
        </mxCell>
        <mxCell id="oGBp75-06O2wuK81VP2u-97" value="" style="shape=image;verticalLabelPosition=bottom;labelBackgroundColor=default;verticalAlign=top;aspect=fixed;imageAspect=0;image=data:image/png,iVBORw0KGgoAAAANSUhEUgAAAKYAAAA0CAYAAAAAJkM/AAAABHNCSVQICAgIfAhkiAAAABl0RVh0U29mdHdhcmUAZ25vbWUtc2NyZWVuc2hvdO8Dvz4AAAAtdEVYdENyZWF0aW9uIFRpbWUATW9uIDAxIEp1bCAyMDI0IDAxOjUwOjEyIFBNICswN0vu1RAAAA0bSURBVHic7Zx5XJVVGse/dwOuoSiIC6gsmk0uiQKhY0im4yhabqkpqTiaBGmTopkamibiviSSmZnhMikuaDouoSggaGnlkKnohMqiCChMyGUR7vxBXH3ve4EL2PTavN/P5/3jPOec5573vb97znme94CihUNrPTIyEkP5ew9ARsYUsjBlJIksTBlJIgtTRpLIwpSRJLIwZSSJLEwZSSILU0aSyMKUkSSyMGUkidqcRhlp18nKusPRo8dYtHgJ9+8XmOV82NAhfLR2Nbm5uezbf4APPlgoqA8LXYS//zhKSkpITk4m5kQs4eERPHjwoEbfCXGxWFtbE5eQwMKFoeTk5Ajqb6ReIys7m4MHD7F8+Qp0uqIqfanVaubOnc0g3wE4OjqiUCgAiNiwkQ8/XCRqr9FoGOg7gBd7v0jnjp1o1cqBRo0aUVZWRuzJk0Tt3svhw0coLS015zFVidJCi+OoqaRtXVZnH9bWDbl65WKt+x04cJCAwCBD+acfL9CkSROz+xcWFtL26T/V+nMrMUuYAC1btsDffxxPP/00r44cZfYHqFQqmjVrRsAbk7B+6ilmzJwlamNhYYG7uzvu7u509/LCf8JEioqqFlIlzZs3Z8Tw4XTt0oXeffqJBN3a0ZHAgMk4tW7DxDcmm/ShVCqJjPyc3j4+AnvM8eOEhi4Wte/YsQPr133EM8+0N3mvffv0oW+fPty8eZPAt97mu+++q/E+qsJh6GSa9xvNvbNfU5DyfZ186PV1Owpx7dq1OvWrJDn5x3r1N2spf/TmevbsQbdu3er0YX5jRmNpaVltG59e3ixauKBWftu1a8ewYUOrrPf17U/Hjh1M1s2fHyIS5ZUrKQS8OYXy8nKBvX379uzbE2VSlMa0adOGqKgv6dqlixl3IMbSvhXNB7wOgPPEEBRKVZ381IWcnBy2RG6tc3+drojQsKX1GoPZM+ajeHTrWueZwNa2Cbdu3a62jZ/faA4fPsLx2Fiz/Xp5erJrV1SV9Z6eHly8+JPANnLkCCZPmiiw3b17l7Fj/SksvC/ysW7dGho2bCiwXb16lZNx8djZ2fJir17Y2toa6hpYWfHJpxvw6fUSuiKd2fcC4DRxHgpVxddj5eBC0+6DyE7cXysfVRFz/DgXfviXyF6OnkuXLnMy9lSN4z137hynTsWL7GkZGcTEHCc3N7deYzRLmJV7rkostdp6fWglSmXVE/batavo6d2b/Pw8s3zZ2NhU69vGprGg3LVLF1YsWyKwlZaW8vrr40nLSBf5f/55T57r1Elg27R5M/PmLTCsKFqtFStWLGPYkCGGNq0dHRn92ig2b9li1n0ANPHqR6OOnoayvqAIe6c+5CR9hV5fXk1PMcbfHcDXMSeIrMeMCPDNt+dZsWp1vXxUh2Sjcjs7O9auXvGb+HZ0dGDr1i1oNBqBffr0mXx/4YLJPqa2AsuXrxZsc3S6It5+exqRkdsE24Du3b3MHpvSQkub12cIbGVXM9FY29K0Yz+z/Tzp1Gkp/1/x17/2Y/DgV9i//8Bj86nVWrFjWyR2dnYCe0TEBnbv3Vtlv0aNbEQ2jUb8+MrKypg1ew5hS5fRocOzAPyS/4vZ43MYOhlNY3tDWZ+dj15XgkKjwsF7PHevxlNWLN5m/NH4XWdM44jx3r17JCaeEdiWhoWKRFQfNkSsp317YfASe+oUixaHVdsv7cZNkS0kZG6V25G8vDwSE5NITEwi+aJ5EeqjAQ9AeXEhD9JyQK1Er1KCWomL74xqPPxxkNxSHjRlKgUFD/OkNjY2rFu3ptZ+jEWv1+sJDp5Gv35/EdhTUlKYNOnNGtMqcQkJorzkqBGvcuir6DpnKYxxmhhiCHgAMnaFcythBwq1ynBZO3fGupXpDMMfCckt5VlZWbz//jzWrFllsPX28WHMmNHs2PEPs/0Yp3peetEHL6/nBbbc3Fz8/MabjMCNycnJITw8gmnT/i6wu7m5ceiraHJycriQnMzphEQO/fMIN2/eMHusUBnwPByfLu0qd2J2AXqaew1BZWVtqHMdNpfk8HHoy8tq9GvqB/fm5EkMeeUVk+13RkWxc+euGv0GBQYQFBhQZb2TSztKSkpq9FMVv+uMaRwxVpZ3Ru0m9tQpQd2HCz+glYOj2b5VKmHez1iUxcXFjB3rT3pmhtk+l61YyfKVqygrEwuiadOm9Ondm3khczmTGMdHH62mRYvmZvk1FfCU/usqmgZ26MvL+ffeUBQadcWsqVGjamCNQ+/xZvk2FZW7uLjQo4eXycv4uf1eSG4pr2Tq1HfIz883lBtotXz88TqTD7ouKJVKlOraLxirVq3B2+clwsMjSE8Xp5WgQgwjhg8nMSFetHUwhXHAk/dtLNqGTrj6zgSgMPMK+de/R69Wgqpiv9msx1A0DR/f3hugoKCAQ4cOP1afdUVyS3klubm5/H1aMFs2bzLYPDw8CHhjEhs2flpjf+OlPCnpLD16PEzbaDQatkV+zoCBr3D9+vVajS01NZXQsCUsXrIU7xdeYOSoVxnk6yt6q6XVWrF500b6DxjEjxdNv68WBTxFhVjpGqKwVGNl35rG7XqQdy2J63uW0mXObkCBAj2goK3fh1zeEGTSbyWmlvLU1FRu375jKJeUlvDTpUt88cU2s/PGVSXYKzG1qtQGyQoT4OjRY+zZt4/hQx++bpw9exYxJ2p+I2Q8s56MiyPmxAlC5s422Bo3bsyObV8wYOBgs7+QR9Hr9cTFxxMXH0+w5bu80LMnoYsW4OTkZGijUql4KyiQwLemmPRhHPDcjT9MYzs3Q9n55WAurPOjvKSQtMMRtB401VCndWyLzTPdyb8izGQ8iqkVZsPGTXKCvb689977ZGVlGcoWFhZ88nGE6IGbc1ghIuJj9kZHC2wuLi5s3/q5KNleW4qLizl+4gQv9e3PzZvC1JKnp6fJPsYBT1FmKrf2b0RhoUZhoam4LDW07h8IQM43h3igy/t1r1kRpbuOnY9CVb+xSxHJC7Og4BeCprwtsHXo8CdcXV0FtqoCKePyO+8Ec/78eUGdu7s7a9asrHYcPt69mDF9muGqTJ4bU1h4n927hYl6R8eWovGYCniuf7aQ4vw7ZF84ChYq9BoVaFTYuvXFqmkr0Ou59vkcUCkNl8LSktaDTc/GTzKSFyZAYmIS27ebnyqqjtLSUvzGThAFLsOGDGH69Heq7Ne2rSvBwdMM18ED++ncsZPJtg4ODoLy7dtZohndOODJSThIQcoPAGTGbEKvAoVl5ayppq1/GCgU6G79m7xLp1GoK0SrUKto+sIQLO1b1eo5SJ0nQpgAIfMXkJ6Z+Vh85efnMfI1P0EiH2Bm8HQGDvQ12SfxTJKgrNVasWFDuCgN5ebmxvDhwiN4588LT2KZCnjSd6zkqXbPYdO5BwoLLalRS1BoVGChBo0aS/uW2HWtiPCvb1+MXql4OHOqlbQLWAaPKWMhBcwKfox/7d49e2JZxZ7sy127SU9Pq//IjNDpCgkMnMKB6D2PJWWUmprKOP+/EbXzH4Lc3fp1a7l9O0u03F++fIX4+NN4e/c02FxdXYneu5vs7Gx+/jkVlUqJh4eH6LOMswiiNzxR4TgMC6BZ39cAKP3PXS6FjKE4LxOr5hWBlAJwHjuXe8nxlJfouLFtEc4TPjDUWTk4Y+fZj9xvjtbnsZjN857uzJg+TWRPy8jgyJFjdQomH6VOx968vXsKvqBHSTp79jcRJlSkKD79bLPoDGVdSUo6Q/DMWaxZ9fAUk6WlJdu3bqFvP1/RfUyf8S779+3BwaGFwG5vb4+9vT2mCA1byrlz5wxlUwHPnZhddFl/3GDTNLKl4bMeXPtsDp3m74Rf00N69DiPD+HnTXPIPfc1LV6ehFWLNhXVgPPEBdz7IY7yktqd/awLHh4eJn+EABnBtxgx6jVSU1Pr7P+JWcorCQ0N48aNml/3mXpXboqdO3exbIUw8LGxsWHXl9tEZzjT09N4efBgtm3bUePfJeXn5xMUNJXw8PUGm9JCS+sxwQ/HVF5G6ich6MvLKCsUnkAqKy6iODudW8ciDftMhYUGW68+aB3bgV5Pysqgh+/Rf91vOk8IqXZc/wscHVuyfOmSmhtWw28uTJ2uSHDVl5KSEgIC3hIl0OvD6tVrGef/N06fTjIkhl1cXNiyeZMojZSZeYuZs97jmWc7M37CRNauXcfe6GhOn04iKeksp+Liefe9OXTz6M6+/cIT5w5DJ2Nh24zykmLyfognJexN7v9ckXjPjP6Ukrt3KC8p4u6ZY+Sdq5hBMw98QsqaqZSV6gz7zfbvRqBQKCnNz+H7qX3Iv/wtqFSgVmL75/40aFPzn3781ri5PVev/gr5H7fKSJEnbimX+f9AFqaMJJGFKSNJZGHKSBJZmDKSRBamjCSRhSkjSWRhykgSWZgykkQWpowkkYUpI0lkYcpIElmYMpJEFqaMJJGFKSNJZGHKSBJZmDKSRBamjCT5LwaRhw4PhSO4AAAAAElFTkSuQmCC;" vertex="1" parent="1">
          <mxGeometry x="107.4" y="7331" width="150.04" height="47" as="geometry" />
        </mxCell>
        <mxCell id="oGBp75-06O2wuK81VP2u-98" value="&lt;font style=&quot;font-size: 24px;&quot;&gt;LINKSAFE Policies&lt;/font&gt;" style="rounded=0;whiteSpace=wrap;html=1;strokeColor=none;" vertex="1" parent="1">
          <mxGeometry x="103.4" y="7426" width="233" height="67" as="geometry" />
        </mxCell>
        <mxCell id="oGBp75-06O2wuK81VP2u-99" value="&lt;font style=&quot;font-size: 18px;&quot;&gt;Search by name and decription ...&lt;/font&gt;" style="rounded=1;whiteSpace=wrap;html=1;align=center;" vertex="1" parent="1">
          <mxGeometry x="114.4" y="7543.5" width="371" height="54" as="geometry" />
        </mxCell>
        <mxCell id="oGBp75-06O2wuK81VP2u-100" value="" style="shape=image;verticalLabelPosition=bottom;labelBackgroundColor=default;verticalAlign=top;aspect=fixed;imageAspect=0;image=data:image/png,iVBORw0KGgoAAAANSUhEUgAAACUAAAAbCAYAAAD77kbeAAAABHNCSVQICAgIfAhkiAAAABl0RVh0U29mdHdhcmUAZ25vbWUtc2NyZWVuc2hvdO8Dvz4AAAAtdEVYdENyZWF0aW9uIFRpbWUATW9uIDAxIEp1bCAyMDI0IDAyOjI3OjI4IFBNICswN8JhLMoAAAHDSURBVEiJ7dbNTxNBGMfxL7t7o6eumGwVNmq2lFPTmjRqUkwJFpiTF/17/GM4eJSEG8GXeACaSi0NGg+kAqH7cmCOtGx29WAwIVa7ZZu1h/6uz7OTT2aezM5UsVT+wZhF+d+AfpmgomaCipqxRGnDfjBrmmRzC+i6ThAEuLbNYesAKeXIUKpxx3wVtbkqBMsrq3QvLrA7HXrdLnP37vN0aYnLXo/O2dlIUJF3qioEDyyL1+vrnB5/v1bLF4pUhcD3fZqN/dioSDM1a5rkC0U232z8AQJoNvb5sL3NYqWCosQf00grZHMLtI+O+oKuUtvdQVVVrPlcMihd13Fse2Cf57mk9XQyqCAI0LTB46coGmEQJoNybZu7c+Y/e6ZTKYyMgeMM3tGRoA5bBxgZg3yh+NeeZ2sCz3E4breTQUkpebe1RVUISo8eX6tNp1I8f/ESK5vl9OQkNgiGuKfqtT1832exUuFJuYznuiiqhpEx8ByHT7UaD0slpDynUa8ng4Jf91Gr+RlrPkdaTxMGIR/fv/19ZFKes7yyChALNvS/LwxDvn390rd2Bbk1c/vGoBuhBiXu0cGYPl0mqKiZoKJmLFE/AeScmQjUcPQpAAAAAElFTkSuQmCC;" vertex="1" parent="1">
          <mxGeometry x="119.4" y="7556" width="37" height="27" as="geometry" />
        </mxCell>
        <mxCell id="oGBp75-06O2wuK81VP2u-101" value="&lt;font style=&quot;font-size: 18px;&quot;&gt;All&amp;nbsp; &amp;nbsp; &amp;nbsp;Active&amp;nbsp; &amp;nbsp; Inactive&lt;/font&gt;" style="rounded=1;whiteSpace=wrap;html=1;" vertex="1" parent="1">
          <mxGeometry x="523.4" y="7543.5" width="210" height="53" as="geometry" />
        </mxCell>
        <mxCell id="oGBp75-06O2wuK81VP2u-102" value="" style="endArrow=none;html=1;rounded=0;entryX=0.25;entryY=0;entryDx=0;entryDy=0;exitX=0.25;exitY=1;exitDx=0;exitDy=0;" edge="1" parent="1" source="oGBp75-06O2wuK81VP2u-101" target="oGBp75-06O2wuK81VP2u-101">
          <mxGeometry width="50" height="50" relative="1" as="geometry">
            <mxPoint x="637.4" y="7933" as="sourcePoint" />
            <mxPoint x="687.4" y="7883" as="targetPoint" />
          </mxGeometry>
        </mxCell>
        <mxCell id="oGBp75-06O2wuK81VP2u-103" value="" style="endArrow=none;html=1;rounded=0;entryX=0.583;entryY=-0.043;entryDx=0;entryDy=0;entryPerimeter=0;exitX=0.586;exitY=0.992;exitDx=0;exitDy=0;exitPerimeter=0;" edge="1" parent="1" source="oGBp75-06O2wuK81VP2u-101" target="oGBp75-06O2wuK81VP2u-101">
          <mxGeometry width="50" height="50" relative="1" as="geometry">
            <mxPoint x="884.4" y="7587" as="sourcePoint" />
            <mxPoint x="826.4" y="7543" as="targetPoint" />
          </mxGeometry>
        </mxCell>
        <mxCell id="oGBp75-06O2wuK81VP2u-104" value="&lt;font style=&quot;font-size: 18px;&quot;&gt;10 rows per page&lt;/font&gt;" style="rounded=1;whiteSpace=wrap;html=1;" vertex="1" parent="1">
          <mxGeometry x="787.4" y="7544" width="165" height="53" as="geometry" />
        </mxCell>
        <mxCell id="oGBp75-06O2wuK81VP2u-105" value="&lt;font style=&quot;font-size: 18px;&quot;&gt;+ Add policy&lt;/font&gt;" style="rounded=1;whiteSpace=wrap;html=1;" vertex="1" parent="1">
          <mxGeometry x="1274.4" y="7545.5" width="191" height="52" as="geometry" />
        </mxCell>
        <mxCell id="oGBp75-06O2wuK81VP2u-106" value="&lt;font style=&quot;font-size: 18px;&quot;&gt;Name&lt;span style=&quot;white-space: pre;&quot;&gt;&#x9;&lt;/span&gt;&lt;span style=&quot;white-space: pre;&quot;&gt;&#x9;&lt;/span&gt;&lt;span style=&quot;white-space: pre;&quot;&gt;&#x9;&lt;/span&gt;&lt;span style=&quot;white-space: pre;&quot;&gt;&#x9;&lt;/span&gt;&lt;span style=&quot;white-space: pre;&quot;&gt;&#x9;&lt;/span&gt;&lt;span style=&quot;white-space: pre;&quot;&gt;&#x9;&lt;/span&gt;&lt;span style=&quot;white-space: pre;&quot;&gt;&#x9;&lt;/span&gt;&lt;span style=&quot;white-space: pre;&quot;&gt;&#x9;&lt;/span&gt;Active&lt;span style=&quot;white-space: pre;&quot;&gt;&#x9;&lt;span style=&quot;white-space: pre;&quot;&gt;&#x9;&lt;/span&gt;&lt;span style=&quot;white-space: pre;&quot;&gt;&#x9;&lt;/span&gt;&lt;/span&gt;&amp;nbsp;Source Zone &lt;span style=&quot;white-space: pre;&quot;&gt;&#x9;&lt;/span&gt;&lt;span style=&quot;white-space: pre;&quot;&gt;&#x9;&lt;/span&gt;&lt;span style=&quot;white-space: pre;&quot;&gt;&#x9;&lt;/span&gt;Destination&amp;nbsp;Zone&lt;span style=&quot;white-space: pre;&quot;&gt;&#x9;&lt;span style=&quot;white-space: pre;&quot;&gt;&#x9;&lt;/span&gt;&lt;/span&gt;&lt;span style=&quot;white-space: pre;&quot;&gt;&#x9;&lt;/span&gt; Protocol&lt;span style=&quot;white-space: pre;&quot;&gt;&#x9;&lt;span style=&quot;white-space: pre;&quot;&gt;&#x9;&lt;/span&gt;&lt;span style=&quot;white-space: pre;&quot;&gt;&#x9;&lt;/span&gt;&lt;span style=&quot;white-space: pre;&quot;&gt;&#x9;&lt;/span&gt;&lt;/span&gt;&lt;span style=&quot;white-space: pre;&quot;&gt;&#x9;&lt;/span&gt;&lt;span style=&quot;white-space: pre;&quot;&gt;&#x9;&lt;/span&gt;&lt;/font&gt;" style="rounded=0;whiteSpace=wrap;html=1;" vertex="1" parent="1">
          <mxGeometry x="85.39999999999999" y="7618" width="1396" height="53" as="geometry" />
        </mxCell>
        <mxCell id="oGBp75-06O2wuK81VP2u-107" value="" style="rounded=1;whiteSpace=wrap;html=1;" vertex="1" parent="1">
          <mxGeometry x="982.4" y="7543.5" width="63" height="52" as="geometry" />
        </mxCell>
        <mxCell id="oGBp75-06O2wuK81VP2u-108" value="" style="shape=image;html=1;verticalAlign=top;verticalLabelPosition=bottom;labelBackgroundColor=#ffffff;imageAspect=0;aspect=fixed;image=https://cdn0.iconfinder.com/data/icons/evericons-24px-vol-1/24/refresh-ccw-128.png" vertex="1" parent="1">
          <mxGeometry x="998.52" y="7555.12" width="30.75" height="30.75" as="geometry" />
        </mxCell>
        <mxCell id="oGBp75-06O2wuK81VP2u-109" value="&lt;div style=&quot;text-align: left;&quot;&gt;&lt;span style=&quot;font-size: 14px; white-space-collapse: preserve; background-color: initial;&quot;&gt;Create rules to manage access in your network and define what peers can connect.&lt;/span&gt;&lt;/div&gt;&lt;span&gt;&lt;div style=&quot;text-align: left;&quot;&gt;&lt;span style=&quot;font-size: 14px; white-space-collapse: preserve; background-color: initial;&quot;&gt;Learn more about Policies in our documentation.&lt;/span&gt;&lt;/div&gt;&lt;/span&gt;" style="rounded=1;whiteSpace=wrap;html=1;strokeColor=none;" vertex="1" parent="1">
          <mxGeometry x="114.4" y="7470.5" width="523" height="60" as="geometry" />
        </mxCell>
        <mxCell id="oGBp75-06O2wuK81VP2u-110" value="&lt;font style=&quot;font-size: 24px;&quot;&gt;Routes&lt;/font&gt;" style="rounded=1;whiteSpace=wrap;html=1;strokeColor=none;" vertex="1" parent="1">
          <mxGeometry x="736.4" y="7324.5" width="120" height="60" as="geometry" />
        </mxCell>
        <mxCell id="oGBp75-06O2wuK81VP2u-111" value="&lt;font style=&quot;font-size: 24px;&quot;&gt;Nameservers&lt;/font&gt;" style="rounded=1;whiteSpace=wrap;html=1;strokeColor=none;" vertex="1" parent="1">
          <mxGeometry x="918.4" y="7329" width="200.13" height="51" as="geometry" />
        </mxCell>
        <mxCell id="oGBp75-06O2wuK81VP2u-112" value="&lt;span style=&quot;font-size: 24px;&quot;&gt;DNS Settings&lt;/span&gt;" style="rounded=1;whiteSpace=wrap;html=1;strokeColor=none;" vertex="1" parent="1">
          <mxGeometry x="1165.4" y="7329" width="200.13" height="51" as="geometry" />
        </mxCell>
        <mxCell id="oGBp75-06O2wuK81VP2u-113" value="&lt;font style=&quot;font-size: 24px;&quot;&gt;Policies&lt;/font&gt;" style="rounded=1;whiteSpace=wrap;html=1;" vertex="1" parent="1">
          <mxGeometry x="490.3999999999999" y="7320" width="151" height="60" as="geometry" />
        </mxCell>
        <mxCell id="oGBp75-06O2wuK81VP2u-114" value="&lt;font style=&quot;font-size: 24px;&quot;&gt;Policy 1&lt;/font&gt;" style="rounded=1;whiteSpace=wrap;html=1;strokeColor=none;" vertex="1" parent="1">
          <mxGeometry x="122.42" y="7677" width="120" height="60" as="geometry" />
        </mxCell>
        <mxCell id="oGBp75-06O2wuK81VP2u-115" value="" style="fillColor=#36B37E;strokeColor=none;rounded=1;arcSize=50;sketch=0;hachureGap=4;pointerEvents=0;fontFamily=Architects Daughter;fontSource=https%3A%2F%2Ffonts.googleapis.com%2Fcss%3Ffamily%3DArchitects%2BDaughter;fontSize=20;" vertex="1" parent="1">
          <mxGeometry x="527.4" y="7700" width="42" height="23" as="geometry" />
        </mxCell>
        <mxCell id="oGBp75-06O2wuK81VP2u-116" value="" style="shape=ellipse;strokeColor=none;fillColor=#ffffff;sketch=0;hachureGap=4;pointerEvents=0;fontFamily=Architects Daughter;fontSource=https%3A%2F%2Ffonts.googleapis.com%2Fcss%3Ffamily%3DArchitects%2BDaughter;fontSize=20;" vertex="1" parent="oGBp75-06O2wuK81VP2u-115">
          <mxGeometry x="1" y="0.5" width="12" height="12" relative="1" as="geometry">
            <mxPoint x="-14" y="-6" as="offset" />
          </mxGeometry>
        </mxCell>
        <mxCell id="oGBp75-06O2wuK81VP2u-117" value="" style="html=1;shadow=0;dashed=0;shape=mxgraph.atlassian.check;strokeColor=#ffffff;sketch=1;hachureGap=4;pointerEvents=0;fontFamily=Architects Daughter;fontSource=https%3A%2F%2Ffonts.googleapis.com%2Fcss%3Ffamily%3DArchitects%2BDaughter;fontSize=20;" vertex="1" parent="oGBp75-06O2wuK81VP2u-115">
          <mxGeometry y="0.5" width="6" height="5" relative="1" as="geometry">
            <mxPoint x="4" y="-3" as="offset" />
          </mxGeometry>
        </mxCell>
        <mxCell id="oGBp75-06O2wuK81VP2u-118" value="" style="endArrow=none;html=1;rounded=0;exitX=0;exitY=0.527;exitDx=0;exitDy=0;exitPerimeter=0;entryX=1.004;entryY=0.526;entryDx=0;entryDy=0;entryPerimeter=0;" edge="1" parent="1" source="oGBp75-06O2wuK81VP2u-95" target="oGBp75-06O2wuK81VP2u-95">
          <mxGeometry width="50" height="50" relative="1" as="geometry">
            <mxPoint x="632.4" y="7727" as="sourcePoint" />
            <mxPoint x="682.4" y="7677" as="targetPoint" />
          </mxGeometry>
        </mxCell>
        <mxCell id="oGBp75-06O2wuK81VP2u-119" value="&lt;font style=&quot;font-size: 24px;&quot;&gt;Routes&lt;/font&gt;" style="rounded=1;whiteSpace=wrap;html=1;strokeColor=default;" vertex="1" parent="1">
          <mxGeometry x="721" y="4983" width="120" height="60" as="geometry" />
        </mxCell>
        <mxCell id="oGBp75-06O2wuK81VP2u-120" value="&lt;span style=&quot;font-size: 24px;&quot;&gt;Nameservers&lt;/span&gt;" style="rounded=1;whiteSpace=wrap;html=1;strokeColor=none;" vertex="1" parent="1">
          <mxGeometry x="939.93" y="5950" width="167.2" height="57" as="geometry" />
        </mxCell>
        <mxCell id="oGBp75-06O2wuK81VP2u-121" value="&lt;span style=&quot;font-size: 24px;&quot;&gt;DNS Settings&lt;/span&gt;" style="rounded=1;whiteSpace=wrap;html=1;" vertex="1" parent="1">
          <mxGeometry x="1224.6" y="5950" width="172" height="54" as="geometry" />
        </mxCell>
        <mxCell id="oGBp75-06O2wuK81VP2u-124" value="&lt;font style=&quot;font-size: 18px;&quot;&gt;All&lt;/font&gt;" style="rounded=1;whiteSpace=wrap;html=1;" vertex="1" parent="1">
          <mxGeometry x="631.49" y="-4705" width="60" height="45" as="geometry" />
        </mxCell>
        <mxCell id="oGBp75-06O2wuK81VP2u-125" value="&lt;font style=&quot;font-size: 18px;&quot;&gt;All&lt;/font&gt;" style="rounded=1;whiteSpace=wrap;html=1;" vertex="1" parent="1">
          <mxGeometry x="846.49" y="-4702" width="60" height="45" as="geometry" />
        </mxCell>
        <mxCell id="oGBp75-06O2wuK81VP2u-126" value="&lt;font style=&quot;font-size: 18px;&quot;&gt;All&lt;/font&gt;" style="rounded=1;whiteSpace=wrap;html=1;" vertex="1" parent="1">
          <mxGeometry x="1063.42" y="-4705" width="60" height="45" as="geometry" />
        </mxCell>
        <mxCell id="oGBp75-06O2wuK81VP2u-127" value="&lt;font style=&quot;font-size: 18px;&quot;&gt;Delete&lt;/font&gt;" style="rounded=1;whiteSpace=wrap;html=1;strokeColor=none;" vertex="1" parent="1">
          <mxGeometry x="1291.49" y="-4711.25" width="111" height="48.5" as="geometry" />
        </mxCell>
        <mxCell id="oGBp75-06O2wuK81VP2u-130" value="&lt;font style=&quot;font-size: 18px;&quot;&gt;Policy 1&lt;/font&gt;" style="rounded=1;whiteSpace=wrap;html=1;strokeColor=none;" vertex="1" parent="1">
          <mxGeometry x="46.88999999999999" y="-4630" width="120" height="60" as="geometry" />
        </mxCell>
        <mxCell id="oGBp75-06O2wuK81VP2u-131" value="" style="fillColor=#CCCCCC;strokeColor=none;rounded=1;arcSize=50;sketch=0;hachureGap=4;pointerEvents=0;fontFamily=Architects Daughter;fontSource=https%3A%2F%2Ffonts.googleapis.com%2Fcss%3Ffamily%3DArchitects%2BDaughter;fontSize=20;" vertex="1" parent="1">
          <mxGeometry x="455.49" y="-4611.5" width="42" height="23" as="geometry" />
        </mxCell>
        <mxCell id="oGBp75-06O2wuK81VP2u-132" value="" style="shape=ellipse;strokeColor=none;fillColor=#ffffff;sketch=0;hachureGap=4;pointerEvents=0;fontFamily=Architects Daughter;fontSource=https%3A%2F%2Ffonts.googleapis.com%2Fcss%3Ffamily%3DArchitects%2BDaughter;fontSize=20;" vertex="1" parent="oGBp75-06O2wuK81VP2u-131">
          <mxGeometry x="1" y="0.5" width="12" height="12" relative="1" as="geometry">
            <mxPoint x="-38" y="-6" as="offset" />
          </mxGeometry>
        </mxCell>
        <mxCell id="oGBp75-06O2wuK81VP2u-133" value="" style="html=1;shadow=0;dashed=0;shape=mxgraph.atlassian.check;strokeColor=#ffffff;sketch=1;hachureGap=4;pointerEvents=0;fontFamily=Architects Daughter;fontSource=https%3A%2F%2Ffonts.googleapis.com%2Fcss%3Ffamily%3DArchitects%2BDaughter;fontSize=20;" vertex="1" parent="oGBp75-06O2wuK81VP2u-131">
          <mxGeometry y="0.5" width="6" height="5" relative="1" as="geometry">
            <mxPoint x="4" y="-3" as="offset" />
          </mxGeometry>
        </mxCell>
        <mxCell id="oGBp75-06O2wuK81VP2u-134" value="" style="endArrow=none;html=1;rounded=0;exitX=0;exitY=0.527;exitDx=0;exitDy=0;exitPerimeter=0;entryX=1.004;entryY=0.526;entryDx=0;entryDy=0;entryPerimeter=0;" edge="1" parent="1">
          <mxGeometry width="50" height="50" relative="1" as="geometry">
            <mxPoint x="4.489999999999995" y="-4554" as="sourcePoint" />
            <mxPoint x="1413.49" y="-4555" as="targetPoint" />
          </mxGeometry>
        </mxCell>
        <mxCell id="oGBp75-06O2wuK81VP2u-135" value="&lt;font style=&quot;font-size: 18px;&quot;&gt;G1&lt;/font&gt;" style="rounded=1;whiteSpace=wrap;html=1;" vertex="1" parent="1">
          <mxGeometry x="629.49" y="-4619" width="60" height="45" as="geometry" />
        </mxCell>
        <mxCell id="oGBp75-06O2wuK81VP2u-136" value="&lt;font style=&quot;font-size: 18px;&quot;&gt;G1&lt;/font&gt;" style="rounded=1;whiteSpace=wrap;html=1;" vertex="1" parent="1">
          <mxGeometry x="846.49" y="-4622.5" width="60" height="45" as="geometry" />
        </mxCell>
        <mxCell id="oGBp75-06O2wuK81VP2u-137" value="&lt;font style=&quot;font-size: 18px;&quot;&gt;TCP&lt;/font&gt;" style="rounded=1;whiteSpace=wrap;html=1;" vertex="1" parent="1">
          <mxGeometry x="1068.49" y="-4622.5" width="60" height="45" as="geometry" />
        </mxCell>
        <mxCell id="oGBp75-06O2wuK81VP2u-138" value="&lt;font style=&quot;font-size: 18px;&quot;&gt;Delete&lt;/font&gt;" style="rounded=1;whiteSpace=wrap;html=1;strokeColor=none;" vertex="1" parent="1">
          <mxGeometry x="1293.89" y="-4624.25" width="111" height="48.5" as="geometry" />
        </mxCell>
        <mxCell id="oGBp75-06O2wuK81VP2u-140" value="" style="whiteSpace=wrap;html=1;aspect=fixed;rounded=0;" vertex="1" parent="1">
          <mxGeometry x="315" y="-4137" width="726" height="726" as="geometry" />
        </mxCell>
        <mxCell id="oGBp75-06O2wuK81VP2u-141" value="&lt;font style=&quot;font-size: 18px;&quot;&gt;&lt;span style=&quot;white-space: pre;&quot;&gt;&#x9;&lt;/span&gt;Create new policy&lt;/font&gt;&lt;blockquote style=&quot;margin: 0 0 0 40px; border: none; padding: 0px;&quot;&gt;&lt;div&gt;&lt;span style=&quot;background-color: initial;&quot;&gt;&lt;font style=&quot;font-size: 14px;&quot;&gt;Use this policy to restrict access to groups of resources.&lt;/font&gt;&lt;/span&gt;&lt;/div&gt;&lt;/blockquote&gt;" style="rounded=1;whiteSpace=wrap;html=1;align=left;strokeColor=none;" vertex="1" parent="1">
          <mxGeometry x="321" y="-4123" width="415" height="69" as="geometry" />
        </mxCell>
        <mxCell id="oGBp75-06O2wuK81VP2u-142" value="" style="endArrow=none;html=1;rounded=0;exitX=-0.001;exitY=0.222;exitDx=0;exitDy=0;exitPerimeter=0;entryX=0.999;entryY=0.223;entryDx=0;entryDy=0;entryPerimeter=0;" edge="1" parent="1" source="oGBp75-06O2wuK81VP2u-140" target="oGBp75-06O2wuK81VP2u-140">
          <mxGeometry width="50" height="50" relative="1" as="geometry">
            <mxPoint x="311" y="-4016" as="sourcePoint" />
            <mxPoint x="1036" y="-4008" as="targetPoint" />
          </mxGeometry>
        </mxCell>
        <mxCell id="oGBp75-06O2wuK81VP2u-143" value="&lt;font style=&quot;font-size: 14px;&quot;&gt;Policy&lt;/font&gt;" style="rounded=1;whiteSpace=wrap;html=1;strokeColor=default;strokeWidth=1;" vertex="1" parent="1">
          <mxGeometry x="366" y="-4023" width="127.4" height="37" as="geometry" />
        </mxCell>
        <mxCell id="oGBp75-06O2wuK81VP2u-144" value="&lt;font style=&quot;font-size: 14px;&quot;&gt;Name &amp;amp; Description&lt;/font&gt;" style="rounded=1;whiteSpace=wrap;html=1;strokeColor=none;" vertex="1" parent="1">
          <mxGeometry x="580" y="-4023" width="144" height="37" as="geometry" />
        </mxCell>
        <mxCell id="oGBp75-06O2wuK81VP2u-169" value="" style="rounded=0;whiteSpace=wrap;html=1;" vertex="1" parent="1">
          <mxGeometry x="1.3999999999999986" y="-1679" width="1403" height="850" as="geometry" />
        </mxCell>
        <mxCell id="oGBp75-06O2wuK81VP2u-170" value="" style="endArrow=none;html=1;rounded=0;exitX=-0.001;exitY=0.107;exitDx=0;exitDy=0;exitPerimeter=0;entryX=1.003;entryY=0.109;entryDx=0;entryDy=0;entryPerimeter=0;" edge="1" parent="1" source="oGBp75-06O2wuK81VP2u-169" target="oGBp75-06O2wuK81VP2u-169">
          <mxGeometry width="50" height="50" relative="1" as="geometry">
            <mxPoint x="498.19999999999993" y="-1247" as="sourcePoint" />
            <mxPoint x="548.1999999999999" y="-1297" as="targetPoint" />
          </mxGeometry>
        </mxCell>
        <mxCell id="oGBp75-06O2wuK81VP2u-171" value="" style="shape=image;verticalLabelPosition=bottom;labelBackgroundColor=default;verticalAlign=top;aspect=fixed;imageAspect=0;image=data:image/png,iVBORw0KGgoAAAANSUhEUgAAAKYAAAA0CAYAAAAAJkM/AAAABHNCSVQICAgIfAhkiAAAABl0RVh0U29mdHdhcmUAZ25vbWUtc2NyZWVuc2hvdO8Dvz4AAAAtdEVYdENyZWF0aW9uIFRpbWUATW9uIDAxIEp1bCAyMDI0IDAxOjUwOjEyIFBNICswN0vu1RAAAA0bSURBVHic7Zx5XJVVGse/dwOuoSiIC6gsmk0uiQKhY0im4yhabqkpqTiaBGmTopkamibiviSSmZnhMikuaDouoSggaGnlkKnohMqiCChMyGUR7vxBXH3ve4EL2PTavN/P5/3jPOec5573vb97znme94CihUNrPTIyEkP5ew9ARsYUsjBlJIksTBlJIgtTRpLIwpSRJLIwZSSJLEwZSSILU0aSyMKUkSSyMGUkidqcRhlp18nKusPRo8dYtHgJ9+8XmOV82NAhfLR2Nbm5uezbf4APPlgoqA8LXYS//zhKSkpITk4m5kQs4eERPHjwoEbfCXGxWFtbE5eQwMKFoeTk5Ajqb6ReIys7m4MHD7F8+Qp0uqIqfanVaubOnc0g3wE4OjqiUCgAiNiwkQ8/XCRqr9FoGOg7gBd7v0jnjp1o1cqBRo0aUVZWRuzJk0Tt3svhw0coLS015zFVidJCi+OoqaRtXVZnH9bWDbl65WKt+x04cJCAwCBD+acfL9CkSROz+xcWFtL26T/V+nMrMUuYAC1btsDffxxPP/00r44cZfYHqFQqmjVrRsAbk7B+6ilmzJwlamNhYYG7uzvu7u509/LCf8JEioqqFlIlzZs3Z8Tw4XTt0oXeffqJBN3a0ZHAgMk4tW7DxDcmm/ShVCqJjPyc3j4+AnvM8eOEhi4Wte/YsQPr133EM8+0N3mvffv0oW+fPty8eZPAt97mu+++q/E+qsJh6GSa9xvNvbNfU5DyfZ186PV1Owpx7dq1OvWrJDn5x3r1N2spf/TmevbsQbdu3er0YX5jRmNpaVltG59e3ixauKBWftu1a8ewYUOrrPf17U/Hjh1M1s2fHyIS5ZUrKQS8OYXy8nKBvX379uzbE2VSlMa0adOGqKgv6dqlixl3IMbSvhXNB7wOgPPEEBRKVZ381IWcnBy2RG6tc3+drojQsKX1GoPZM+ajeHTrWueZwNa2Cbdu3a62jZ/faA4fPsLx2Fiz/Xp5erJrV1SV9Z6eHly8+JPANnLkCCZPmiiw3b17l7Fj/SksvC/ysW7dGho2bCiwXb16lZNx8djZ2fJir17Y2toa6hpYWfHJpxvw6fUSuiKd2fcC4DRxHgpVxddj5eBC0+6DyE7cXysfVRFz/DgXfviXyF6OnkuXLnMy9lSN4z137hynTsWL7GkZGcTEHCc3N7deYzRLmJV7rkostdp6fWglSmXVE/batavo6d2b/Pw8s3zZ2NhU69vGprGg3LVLF1YsWyKwlZaW8vrr40nLSBf5f/55T57r1Elg27R5M/PmLTCsKFqtFStWLGPYkCGGNq0dHRn92ig2b9li1n0ANPHqR6OOnoayvqAIe6c+5CR9hV5fXk1PMcbfHcDXMSeIrMeMCPDNt+dZsWp1vXxUh2Sjcjs7O9auXvGb+HZ0dGDr1i1oNBqBffr0mXx/4YLJPqa2AsuXrxZsc3S6It5+exqRkdsE24Du3b3MHpvSQkub12cIbGVXM9FY29K0Yz+z/Tzp1Gkp/1/x17/2Y/DgV9i//8Bj86nVWrFjWyR2dnYCe0TEBnbv3Vtlv0aNbEQ2jUb8+MrKypg1ew5hS5fRocOzAPyS/4vZ43MYOhlNY3tDWZ+dj15XgkKjwsF7PHevxlNWLN5m/NH4XWdM44jx3r17JCaeEdiWhoWKRFQfNkSsp317YfASe+oUixaHVdsv7cZNkS0kZG6V25G8vDwSE5NITEwi+aJ5EeqjAQ9AeXEhD9JyQK1Er1KCWomL74xqPPxxkNxSHjRlKgUFD/OkNjY2rFu3ptZ+jEWv1+sJDp5Gv35/EdhTUlKYNOnNGtMqcQkJorzkqBGvcuir6DpnKYxxmhhiCHgAMnaFcythBwq1ynBZO3fGupXpDMMfCckt5VlZWbz//jzWrFllsPX28WHMmNHs2PEPs/0Yp3peetEHL6/nBbbc3Fz8/MabjMCNycnJITw8gmnT/i6wu7m5ceiraHJycriQnMzphEQO/fMIN2/eMHusUBnwPByfLu0qd2J2AXqaew1BZWVtqHMdNpfk8HHoy8tq9GvqB/fm5EkMeeUVk+13RkWxc+euGv0GBQYQFBhQZb2TSztKSkpq9FMVv+uMaRwxVpZ3Ru0m9tQpQd2HCz+glYOj2b5VKmHez1iUxcXFjB3rT3pmhtk+l61YyfKVqygrEwuiadOm9Ondm3khczmTGMdHH62mRYvmZvk1FfCU/usqmgZ26MvL+ffeUBQadcWsqVGjamCNQ+/xZvk2FZW7uLjQo4eXycv4uf1eSG4pr2Tq1HfIz883lBtotXz88TqTD7ouKJVKlOraLxirVq3B2+clwsMjSE8Xp5WgQgwjhg8nMSFetHUwhXHAk/dtLNqGTrj6zgSgMPMK+de/R69Wgqpiv9msx1A0DR/f3hugoKCAQ4cOP1afdUVyS3klubm5/H1aMFs2bzLYPDw8CHhjEhs2flpjf+OlPCnpLD16PEzbaDQatkV+zoCBr3D9+vVajS01NZXQsCUsXrIU7xdeYOSoVxnk6yt6q6XVWrF500b6DxjEjxdNv68WBTxFhVjpGqKwVGNl35rG7XqQdy2J63uW0mXObkCBAj2goK3fh1zeEGTSbyWmlvLU1FRu375jKJeUlvDTpUt88cU2s/PGVSXYKzG1qtQGyQoT4OjRY+zZt4/hQx++bpw9exYxJ2p+I2Q8s56MiyPmxAlC5s422Bo3bsyObV8wYOBgs7+QR9Hr9cTFxxMXH0+w5bu80LMnoYsW4OTkZGijUql4KyiQwLemmPRhHPDcjT9MYzs3Q9n55WAurPOjvKSQtMMRtB401VCndWyLzTPdyb8izGQ8iqkVZsPGTXKCvb689977ZGVlGcoWFhZ88nGE6IGbc1ghIuJj9kZHC2wuLi5s3/q5KNleW4qLizl+4gQv9e3PzZvC1JKnp6fJPsYBT1FmKrf2b0RhoUZhoam4LDW07h8IQM43h3igy/t1r1kRpbuOnY9CVb+xSxHJC7Og4BeCprwtsHXo8CdcXV0FtqoCKePyO+8Ec/78eUGdu7s7a9asrHYcPt69mDF9muGqTJ4bU1h4n927hYl6R8eWovGYCniuf7aQ4vw7ZF84ChYq9BoVaFTYuvXFqmkr0Ou59vkcUCkNl8LSktaDTc/GTzKSFyZAYmIS27ebnyqqjtLSUvzGThAFLsOGDGH69Heq7Ne2rSvBwdMM18ED++ncsZPJtg4ODoLy7dtZohndOODJSThIQcoPAGTGbEKvAoVl5ayppq1/GCgU6G79m7xLp1GoK0SrUKto+sIQLO1b1eo5SJ0nQpgAIfMXkJ6Z+Vh85efnMfI1P0EiH2Bm8HQGDvQ12SfxTJKgrNVasWFDuCgN5ebmxvDhwiN4588LT2KZCnjSd6zkqXbPYdO5BwoLLalRS1BoVGChBo0aS/uW2HWtiPCvb1+MXql4OHOqlbQLWAaPKWMhBcwKfox/7d49e2JZxZ7sy127SU9Pq//IjNDpCgkMnMKB6D2PJWWUmprKOP+/EbXzH4Lc3fp1a7l9O0u03F++fIX4+NN4e/c02FxdXYneu5vs7Gx+/jkVlUqJh4eH6LOMswiiNzxR4TgMC6BZ39cAKP3PXS6FjKE4LxOr5hWBlAJwHjuXe8nxlJfouLFtEc4TPjDUWTk4Y+fZj9xvjtbnsZjN857uzJg+TWRPy8jgyJFjdQomH6VOx968vXsKvqBHSTp79jcRJlSkKD79bLPoDGVdSUo6Q/DMWaxZ9fAUk6WlJdu3bqFvP1/RfUyf8S779+3BwaGFwG5vb4+9vT2mCA1byrlz5wxlUwHPnZhddFl/3GDTNLKl4bMeXPtsDp3m74Rf00N69DiPD+HnTXPIPfc1LV6ehFWLNhXVgPPEBdz7IY7yktqd/awLHh4eJn+EABnBtxgx6jVSU1Pr7P+JWcorCQ0N48aNml/3mXpXboqdO3exbIUw8LGxsWHXl9tEZzjT09N4efBgtm3bUePfJeXn5xMUNJXw8PUGm9JCS+sxwQ/HVF5G6ich6MvLKCsUnkAqKy6iODudW8ciDftMhYUGW68+aB3bgV5Pysqgh+/Rf91vOk8IqXZc/wscHVuyfOmSmhtWw28uTJ2uSHDVl5KSEgIC3hIl0OvD6tVrGef/N06fTjIkhl1cXNiyeZMojZSZeYuZs97jmWc7M37CRNauXcfe6GhOn04iKeksp+Liefe9OXTz6M6+/cIT5w5DJ2Nh24zykmLyfognJexN7v9ckXjPjP6Ukrt3KC8p4u6ZY+Sdq5hBMw98QsqaqZSV6gz7zfbvRqBQKCnNz+H7qX3Iv/wtqFSgVmL75/40aFPzn3781ri5PVev/gr5H7fKSJEnbimX+f9AFqaMJJGFKSNJZGHKSBJZmDKSRBamjCSRhSkjSWRhykgSWZgykkQWpowkkYUpI0lkYcpIElmYMpJEFqaMJJGFKSNJZGHKSBJZmDKSRBamjCT5LwaRhw4PhSO4AAAAAElFTkSuQmCC;" vertex="1" parent="1">
          <mxGeometry x="20.199999999999996" y="-1646" width="150.04" height="47" as="geometry" />
        </mxCell>
        <mxCell id="oGBp75-06O2wuK81VP2u-172" value="&lt;font style=&quot;font-size: 24px;&quot;&gt;LINKSAFE Policies&lt;/font&gt;" style="rounded=0;whiteSpace=wrap;html=1;strokeColor=none;" vertex="1" parent="1">
          <mxGeometry x="16.199999999999996" y="-1551" width="233" height="67" as="geometry" />
        </mxCell>
        <mxCell id="oGBp75-06O2wuK81VP2u-173" value="&lt;font style=&quot;font-size: 18px;&quot;&gt;Search by name and decription ...&lt;/font&gt;" style="rounded=1;whiteSpace=wrap;html=1;align=center;" vertex="1" parent="1">
          <mxGeometry x="27.199999999999996" y="-1433.5" width="371" height="54" as="geometry" />
        </mxCell>
        <mxCell id="oGBp75-06O2wuK81VP2u-174" value="" style="shape=image;verticalLabelPosition=bottom;labelBackgroundColor=default;verticalAlign=top;aspect=fixed;imageAspect=0;image=data:image/png,iVBORw0KGgoAAAANSUhEUgAAACUAAAAbCAYAAAD77kbeAAAABHNCSVQICAgIfAhkiAAAABl0RVh0U29mdHdhcmUAZ25vbWUtc2NyZWVuc2hvdO8Dvz4AAAAtdEVYdENyZWF0aW9uIFRpbWUATW9uIDAxIEp1bCAyMDI0IDAyOjI3OjI4IFBNICswN8JhLMoAAAHDSURBVEiJ7dbNTxNBGMfxL7t7o6eumGwVNmq2lFPTmjRqUkwJFpiTF/17/GM4eJSEG8GXeACaSi0NGg+kAqH7cmCOtGx29WAwIVa7ZZu1h/6uz7OTT2aezM5UsVT+wZhF+d+AfpmgomaCipqxRGnDfjBrmmRzC+i6ThAEuLbNYesAKeXIUKpxx3wVtbkqBMsrq3QvLrA7HXrdLnP37vN0aYnLXo/O2dlIUJF3qioEDyyL1+vrnB5/v1bLF4pUhcD3fZqN/dioSDM1a5rkC0U232z8AQJoNvb5sL3NYqWCosQf00grZHMLtI+O+oKuUtvdQVVVrPlcMihd13Fse2Cf57mk9XQyqCAI0LTB46coGmEQJoNybZu7c+Y/e6ZTKYyMgeMM3tGRoA5bBxgZg3yh+NeeZ2sCz3E4breTQUkpebe1RVUISo8eX6tNp1I8f/ESK5vl9OQkNgiGuKfqtT1832exUuFJuYznuiiqhpEx8ByHT7UaD0slpDynUa8ng4Jf91Gr+RlrPkdaTxMGIR/fv/19ZFKes7yyChALNvS/LwxDvn390rd2Bbk1c/vGoBuhBiXu0cGYPl0mqKiZoKJmLFE/AeScmQjUcPQpAAAAAElFTkSuQmCC;" vertex="1" parent="1">
          <mxGeometry x="32.199999999999996" y="-1421" width="37" height="27" as="geometry" />
        </mxCell>
        <mxCell id="oGBp75-06O2wuK81VP2u-175" value="&lt;font style=&quot;font-size: 18px;&quot;&gt;All&amp;nbsp; &amp;nbsp; &amp;nbsp; &amp;nbsp;Enable&lt;/font&gt;" style="rounded=1;whiteSpace=wrap;html=1;" vertex="1" parent="1">
          <mxGeometry x="436.2" y="-1433.5" width="145.8" height="53" as="geometry" />
        </mxCell>
        <mxCell id="oGBp75-06O2wuK81VP2u-178" value="&lt;font style=&quot;font-size: 18px;&quot;&gt;10 rows per page&lt;/font&gt;" style="rounded=1;whiteSpace=wrap;html=1;" vertex="1" parent="1">
          <mxGeometry x="631.9999999999999" y="-1432.5" width="165" height="53" as="geometry" />
        </mxCell>
        <mxCell id="oGBp75-06O2wuK81VP2u-181" value="" style="rounded=1;whiteSpace=wrap;html=1;" vertex="1" parent="1">
          <mxGeometry x="840.8" y="-1431.5" width="63" height="52" as="geometry" />
        </mxCell>
        <mxCell id="oGBp75-06O2wuK81VP2u-182" value="" style="shape=image;html=1;verticalAlign=top;verticalLabelPosition=bottom;labelBackgroundColor=#ffffff;imageAspect=0;aspect=fixed;image=https://cdn0.iconfinder.com/data/icons/evericons-24px-vol-1/24/refresh-ccw-128.png" vertex="1" parent="1">
          <mxGeometry x="856.93" y="-1421.38" width="30.75" height="30.75" as="geometry" />
        </mxCell>
        <mxCell id="oGBp75-06O2wuK81VP2u-183" value="&lt;div style=&quot;text-align: left;&quot;&gt;&lt;span style=&quot;font-size: 14px; white-space-collapse: preserve; background-color: initial;&quot;&gt;Create rules to manage access in your network and define what peers can connect.&lt;/span&gt;&lt;/div&gt;&lt;span&gt;&lt;div style=&quot;text-align: left;&quot;&gt;&lt;span style=&quot;font-size: 14px; white-space-collapse: preserve; background-color: initial;&quot;&gt;Learn more about Policies in our documentation.&lt;/span&gt;&lt;/div&gt;&lt;/span&gt;" style="rounded=1;whiteSpace=wrap;html=1;strokeColor=none;" vertex="1" parent="1">
          <mxGeometry x="27.199999999999996" y="-1506.5" width="523" height="60" as="geometry" />
        </mxCell>
        <mxCell id="oGBp75-06O2wuK81VP2u-184" value="&lt;font style=&quot;font-size: 24px;&quot;&gt;Nameservers&lt;/font&gt;" style="rounded=1;whiteSpace=wrap;html=1;strokeColor=none;" vertex="1" parent="1">
          <mxGeometry x="831.1999999999999" y="-1648" width="200.13" height="51" as="geometry" />
        </mxCell>
        <mxCell id="oGBp75-06O2wuK81VP2u-185" value="&lt;span style=&quot;font-size: 24px;&quot;&gt;DNS Settings&lt;/span&gt;" style="rounded=1;whiteSpace=wrap;html=1;strokeColor=none;" vertex="1" parent="1">
          <mxGeometry x="1078.2000000000003" y="-1648" width="200.13" height="51" as="geometry" />
        </mxCell>
        <mxCell id="oGBp75-06O2wuK81VP2u-186" value="&lt;font style=&quot;font-size: 24px;&quot;&gt;Policies&lt;/font&gt;" style="rounded=1;whiteSpace=wrap;html=1;strokeColor=none;" vertex="1" parent="1">
          <mxGeometry x="403.19999999999993" y="-1657" width="151" height="60" as="geometry" />
        </mxCell>
        <mxCell id="oGBp75-06O2wuK81VP2u-192" value="&lt;font style=&quot;font-size: 24px;&quot;&gt;Routes&lt;/font&gt;" style="rounded=1;whiteSpace=wrap;html=1;strokeColor=default;" vertex="1" parent="1">
          <mxGeometry x="640.8" y="-1657" width="120" height="60" as="geometry" />
        </mxCell>
        <mxCell id="oGBp75-06O2wuK81VP2u-193" value="" style="endArrow=none;html=1;rounded=0;entryX=0.347;entryY=0.044;entryDx=0;entryDy=0;entryPerimeter=0;exitX=0.347;exitY=1.009;exitDx=0;exitDy=0;exitPerimeter=0;" edge="1" parent="1" source="oGBp75-06O2wuK81VP2u-175" target="oGBp75-06O2wuK81VP2u-175">
          <mxGeometry width="50" height="50" relative="1" as="geometry">
            <mxPoint x="494" y="-1264" as="sourcePoint" />
            <mxPoint x="544" y="-1314" as="targetPoint" />
          </mxGeometry>
        </mxCell>
        <mxCell id="oGBp75-06O2wuK81VP2u-194" value="&lt;div&gt;&lt;font style=&quot;font-size: 36px;&quot;&gt;Create New Route&lt;/font&gt;&lt;/div&gt;&lt;div&gt;&lt;font style=&quot;font-size: 18px;&quot;&gt;It looks like you don&#39;t have any routes. Access LANs and VPC by adding a network route.&lt;/font&gt;&lt;/div&gt;" style="rounded=1;whiteSpace=wrap;html=1;strokeColor=none;" vertex="1" parent="1">
          <mxGeometry x="496.52000000000004" y="-1263" width="418" height="145" as="geometry" />
        </mxCell>
        <mxCell id="oGBp75-06O2wuK81VP2u-195" value="&lt;font style=&quot;font-size: 18px;&quot;&gt;Add exit node&lt;/font&gt;" style="rounded=1;whiteSpace=wrap;html=1;" vertex="1" parent="1">
          <mxGeometry x="524" y="-1070" width="157" height="60" as="geometry" />
        </mxCell>
        <mxCell id="oGBp75-06O2wuK81VP2u-196" value="&lt;font style=&quot;font-size: 18px;&quot;&gt;Add route&lt;/font&gt;" style="rounded=1;whiteSpace=wrap;html=1;" vertex="1" parent="1">
          <mxGeometry x="741" y="-1074" width="137.2" height="60" as="geometry" />
        </mxCell>
        <mxCell id="oGBp75-06O2wuK81VP2u-199" value="" style="whiteSpace=wrap;html=1;aspect=fixed;" vertex="1" parent="1">
          <mxGeometry x="403.2" y="-695" width="588" height="588" as="geometry" />
        </mxCell>
        <mxCell id="oGBp75-06O2wuK81VP2u-200" value="&lt;div&gt;&lt;font style=&quot;font-size: 18px;&quot;&gt;Add Exit Node&lt;/font&gt;&lt;/div&gt;&lt;div&gt;&lt;font style=&quot;font-size: 14px;&quot;&gt;Route all internet traffic through a peer&lt;/font&gt;&lt;/div&gt;" style="rounded=1;whiteSpace=wrap;html=1;align=left;strokeColor=none;" vertex="1" parent="1">
          <mxGeometry x="420.4" y="-691" width="268.8" height="60" as="geometry" />
        </mxCell>
        <mxCell id="oGBp75-06O2wuK81VP2u-202" value="" style="endArrow=none;html=1;rounded=0;exitX=-0.003;exitY=0.301;exitDx=0;exitDy=0;exitPerimeter=0;entryX=1;entryY=0.295;entryDx=0;entryDy=0;entryPerimeter=0;" edge="1" parent="1" source="oGBp75-06O2wuK81VP2u-199" target="oGBp75-06O2wuK81VP2u-199">
          <mxGeometry width="50" height="50" relative="1" as="geometry">
            <mxPoint x="553" y="-399" as="sourcePoint" />
            <mxPoint x="603" y="-449" as="targetPoint" />
          </mxGeometry>
        </mxCell>
        <mxCell id="oGBp75-06O2wuK81VP2u-203" value="Routes" style="rounded=1;whiteSpace=wrap;html=1;" vertex="1" parent="1">
          <mxGeometry x="453.40000000000003" y="-569.5" width="91.7" height="39" as="geometry" />
        </mxCell>
        <mxCell id="oGBp75-06O2wuK81VP2u-205" value="Name &amp;amp; Description" style="rounded=1;whiteSpace=wrap;html=1;strokeColor=none;" vertex="1" parent="1">
          <mxGeometry x="573" y="-568" width="127.2" height="36" as="geometry" />
        </mxCell>
        <mxCell id="oGBp75-06O2wuK81VP2u-206" value="Additional Settings" style="rounded=1;whiteSpace=wrap;html=1;strokeColor=none;" vertex="1" parent="1">
          <mxGeometry x="740.9999999999999" y="-564" width="127.2" height="36" as="geometry" />
        </mxCell>
        <mxCell id="oGBp75-06O2wuK81VP2u-207" value="" style="rounded=1;whiteSpace=wrap;html=1;" vertex="1" parent="1">
          <mxGeometry x="423" y="-501" width="550.8" height="146" as="geometry" />
        </mxCell>
        <mxCell id="oGBp75-06O2wuK81VP2u-208" value="&lt;div style=&quot;text-align: left;&quot;&gt;&lt;span style=&quot;background-color: initial;&quot;&gt;&lt;font style=&quot;font-size: 18px;&quot;&gt;Distribution groups&lt;/font&gt;&lt;/span&gt;&lt;/div&gt;&lt;div style=&quot;text-align: left;&quot;&gt;Route all internet traffic through the peer(s) for the following groups&lt;br&gt;&lt;/div&gt;" style="rounded=1;whiteSpace=wrap;html=1;strokeColor=none;" vertex="1" parent="1">
          <mxGeometry x="415.4" y="-336" width="381.6" height="60" as="geometry" />
        </mxCell>
        <mxCell id="oGBp75-06O2wuK81VP2u-209" value="&lt;font style=&quot;font-size: 14px;&quot;&gt;&lt;span style=&quot;white-space: pre;&quot;&gt;&#x9;&lt;/span&gt;&lt;span style=&quot;white-space: pre;&quot;&gt;&#x9;&lt;/span&gt;Add or select groups ...&lt;/font&gt;" style="rounded=1;whiteSpace=wrap;html=1;align=left;" vertex="1" parent="1">
          <mxGeometry x="425.8" y="-257" width="548.2" height="47" as="geometry" />
        </mxCell>
        <mxCell id="oGBp75-06O2wuK81VP2u-210" value="Continue" style="rounded=1;whiteSpace=wrap;html=1;" vertex="1" parent="1">
          <mxGeometry x="872" y="-172" width="102" height="47" as="geometry" />
        </mxCell>
        <mxCell id="oGBp75-06O2wuK81VP2u-211" value="Cancel" style="rounded=1;whiteSpace=wrap;html=1;" vertex="1" parent="1">
          <mxGeometry x="766.1" y="-172" width="77" height="47" as="geometry" />
        </mxCell>
        <mxCell id="oGBp75-06O2wuK81VP2u-212" value="Routing peer" style="rounded=1;whiteSpace=wrap;html=1;" vertex="1" parent="1">
          <mxGeometry x="462.8" y="-483" width="195.2" height="37" as="geometry" />
        </mxCell>
        <mxCell id="oGBp75-06O2wuK81VP2u-213" value="Peer groups" style="rounded=1;whiteSpace=wrap;html=1;strokeColor=none;" vertex="1" parent="1">
          <mxGeometry x="722.6" y="-483" width="195.2" height="37" as="geometry" />
        </mxCell>
        <mxCell id="oGBp75-06O2wuK81VP2u-214" value="&lt;font style=&quot;font-size: 14px;&quot;&gt;&lt;span style=&quot;white-space: pre;&quot;&gt;&#x9;&lt;/span&gt;Select a peer ...&lt;/font&gt;" style="rounded=1;whiteSpace=wrap;html=1;align=left;" vertex="1" parent="1">
          <mxGeometry x="457.6" y="-417" width="481.6" height="39" as="geometry" />
        </mxCell>
        <mxCell id="oGBp75-06O2wuK81VP2u-215" value="" style="whiteSpace=wrap;html=1;aspect=fixed;" vertex="1" parent="1">
          <mxGeometry x="404.08" y="-34" width="588" height="588" as="geometry" />
        </mxCell>
        <mxCell id="oGBp75-06O2wuK81VP2u-216" value="&lt;div&gt;&lt;font style=&quot;font-size: 18px;&quot;&gt;Add Exit Node&lt;/font&gt;&lt;/div&gt;&lt;div&gt;&lt;font style=&quot;font-size: 14px;&quot;&gt;Route all internet traffic through a peer&lt;/font&gt;&lt;/div&gt;" style="rounded=1;whiteSpace=wrap;html=1;align=left;strokeColor=none;" vertex="1" parent="1">
          <mxGeometry x="421.28" y="-30" width="268.8" height="60" as="geometry" />
        </mxCell>
        <mxCell id="oGBp75-06O2wuK81VP2u-217" value="" style="endArrow=none;html=1;rounded=0;exitX=-0.003;exitY=0.301;exitDx=0;exitDy=0;exitPerimeter=0;entryX=1;entryY=0.295;entryDx=0;entryDy=0;entryPerimeter=0;" edge="1" parent="1" source="oGBp75-06O2wuK81VP2u-215" target="oGBp75-06O2wuK81VP2u-215">
          <mxGeometry width="50" height="50" relative="1" as="geometry">
            <mxPoint x="553.8799999999999" y="262" as="sourcePoint" />
            <mxPoint x="603.8799999999999" y="212" as="targetPoint" />
          </mxGeometry>
        </mxCell>
        <mxCell id="oGBp75-06O2wuK81VP2u-218" value="Routes" style="rounded=1;whiteSpace=wrap;html=1;" vertex="1" parent="1">
          <mxGeometry x="454.28000000000003" y="91.5" width="91.7" height="39" as="geometry" />
        </mxCell>
        <mxCell id="oGBp75-06O2wuK81VP2u-219" value="Name &amp;amp; Description" style="rounded=1;whiteSpace=wrap;html=1;strokeColor=none;" vertex="1" parent="1">
          <mxGeometry x="573.8799999999999" y="93" width="127.2" height="36" as="geometry" />
        </mxCell>
        <mxCell id="oGBp75-06O2wuK81VP2u-220" value="Additional Settings" style="rounded=1;whiteSpace=wrap;html=1;strokeColor=none;" vertex="1" parent="1">
          <mxGeometry x="741.8799999999998" y="97" width="127.2" height="36" as="geometry" />
        </mxCell>
        <mxCell id="oGBp75-06O2wuK81VP2u-221" value="" style="rounded=1;whiteSpace=wrap;html=1;" vertex="1" parent="1">
          <mxGeometry x="423.88" y="160" width="550.8" height="146" as="geometry" />
        </mxCell>
        <mxCell id="oGBp75-06O2wuK81VP2u-222" value="&lt;div style=&quot;text-align: left;&quot;&gt;&lt;span style=&quot;background-color: initial;&quot;&gt;&lt;font style=&quot;font-size: 18px;&quot;&gt;Distribution groups&lt;/font&gt;&lt;/span&gt;&lt;/div&gt;&lt;div style=&quot;text-align: left;&quot;&gt;Route all internet traffic through the peer(s) for the following groups&lt;br&gt;&lt;/div&gt;" style="rounded=1;whiteSpace=wrap;html=1;strokeColor=none;" vertex="1" parent="1">
          <mxGeometry x="416.28" y="325" width="381.6" height="60" as="geometry" />
        </mxCell>
        <mxCell id="oGBp75-06O2wuK81VP2u-223" value="&lt;font style=&quot;font-size: 14px;&quot;&gt;&lt;span style=&quot;white-space: pre;&quot;&gt;&#x9;&lt;/span&gt;&lt;span style=&quot;white-space: pre;&quot;&gt;&#x9;&lt;/span&gt;Add or select groups ...&lt;/font&gt;" style="rounded=1;whiteSpace=wrap;html=1;align=left;" vertex="1" parent="1">
          <mxGeometry x="426.68" y="404" width="548.2" height="47" as="geometry" />
        </mxCell>
        <mxCell id="oGBp75-06O2wuK81VP2u-224" value="Continue" style="rounded=1;whiteSpace=wrap;html=1;" vertex="1" parent="1">
          <mxGeometry x="872.8799999999999" y="489" width="102" height="47" as="geometry" />
        </mxCell>
        <mxCell id="oGBp75-06O2wuK81VP2u-225" value="Cancel" style="rounded=1;whiteSpace=wrap;html=1;" vertex="1" parent="1">
          <mxGeometry x="766.9799999999999" y="489" width="77" height="47" as="geometry" />
        </mxCell>
        <mxCell id="oGBp75-06O2wuK81VP2u-226" value="Routing peer" style="rounded=1;whiteSpace=wrap;html=1;strokeColor=none;" vertex="1" parent="1">
          <mxGeometry x="463.68" y="178" width="195.2" height="37" as="geometry" />
        </mxCell>
        <mxCell id="oGBp75-06O2wuK81VP2u-227" value="Peer groups" style="rounded=1;whiteSpace=wrap;html=1;strokeColor=default;" vertex="1" parent="1">
          <mxGeometry x="723.4799999999999" y="178" width="195.2" height="37" as="geometry" />
        </mxCell>
        <mxCell id="oGBp75-06O2wuK81VP2u-228" value="&lt;font style=&quot;font-size: 14px;&quot;&gt;&lt;span style=&quot;white-space: pre;&quot;&gt;&#x9;&lt;/span&gt;Add or select a group&amp;nbsp;...&lt;/font&gt;" style="rounded=1;whiteSpace=wrap;html=1;align=left;" vertex="1" parent="1">
          <mxGeometry x="458.48" y="244" width="481.6" height="39" as="geometry" />
        </mxCell>
        <mxCell id="oGBp75-06O2wuK81VP2u-229" value="" style="whiteSpace=wrap;html=1;aspect=fixed;" vertex="1" parent="1">
          <mxGeometry x="407.65999999999997" y="650" width="588" height="588" as="geometry" />
        </mxCell>
        <mxCell id="oGBp75-06O2wuK81VP2u-230" value="&lt;div&gt;&lt;font style=&quot;font-size: 18px;&quot;&gt;Add Exit Node&lt;/font&gt;&lt;/div&gt;&lt;div&gt;&lt;font style=&quot;font-size: 14px;&quot;&gt;Route all internet traffic through a peer&lt;/font&gt;&lt;/div&gt;" style="rounded=1;whiteSpace=wrap;html=1;align=left;strokeColor=none;" vertex="1" parent="1">
          <mxGeometry x="424.85999999999996" y="654" width="268.8" height="60" as="geometry" />
        </mxCell>
        <mxCell id="oGBp75-06O2wuK81VP2u-231" value="" style="endArrow=none;html=1;rounded=0;exitX=-0.003;exitY=0.301;exitDx=0;exitDy=0;exitPerimeter=0;entryX=1;entryY=0.295;entryDx=0;entryDy=0;entryPerimeter=0;" edge="1" parent="1" source="oGBp75-06O2wuK81VP2u-229" target="oGBp75-06O2wuK81VP2u-229">
          <mxGeometry width="50" height="50" relative="1" as="geometry">
            <mxPoint x="557.4599999999999" y="946" as="sourcePoint" />
            <mxPoint x="607.4599999999999" y="896" as="targetPoint" />
          </mxGeometry>
        </mxCell>
        <mxCell id="oGBp75-06O2wuK81VP2u-232" value="Routes" style="rounded=1;whiteSpace=wrap;html=1;strokeColor=none;" vertex="1" parent="1">
          <mxGeometry x="457.86" y="775.5" width="91.7" height="39" as="geometry" />
        </mxCell>
        <mxCell id="oGBp75-06O2wuK81VP2u-233" value="Name &amp;amp; Description" style="rounded=1;whiteSpace=wrap;html=1;strokeColor=default;" vertex="1" parent="1">
          <mxGeometry x="577.4599999999999" y="777" width="127.2" height="36" as="geometry" />
        </mxCell>
        <mxCell id="oGBp75-06O2wuK81VP2u-234" value="Additional Settings" style="rounded=1;whiteSpace=wrap;html=1;strokeColor=none;" vertex="1" parent="1">
          <mxGeometry x="745.4599999999998" y="781" width="127.2" height="36" as="geometry" />
        </mxCell>
        <mxCell id="oGBp75-06O2wuK81VP2u-235" value="" style="rounded=1;whiteSpace=wrap;html=1;" vertex="1" parent="1">
          <mxGeometry x="427.46" y="844" width="550.8" height="146" as="geometry" />
        </mxCell>
        <mxCell id="oGBp75-06O2wuK81VP2u-236" value="&lt;div style=&quot;text-align: left;&quot;&gt;&lt;span style=&quot;background-color: initial;&quot;&gt;&lt;font style=&quot;font-size: 18px;&quot;&gt;Description (optional)&lt;/font&gt;&lt;/span&gt;&lt;/div&gt;&lt;div style=&quot;text-align: left;&quot;&gt;&lt;span style=&quot;background-color: initial;&quot;&gt;&lt;font style=&quot;&quot;&gt;&lt;font style=&quot;font-size: 12px;&quot;&gt;Write a short description to add more context to this route.&lt;/font&gt;&lt;br&gt;&lt;/font&gt;&lt;/span&gt;&lt;/div&gt;" style="rounded=1;whiteSpace=wrap;html=1;strokeColor=none;" vertex="1" parent="1">
          <mxGeometry x="411.69999999999993" y="994" width="381.6" height="60" as="geometry" />
        </mxCell>
        <mxCell id="oGBp75-06O2wuK81VP2u-237" value="&lt;font style=&quot;font-size: 14px;&quot;&gt;&lt;span style=&quot;white-space: pre;&quot;&gt;&#x9;&lt;/span&gt;&lt;span style=&quot;white-space: pre;&quot;&gt;&#x9;&lt;/span&gt;e.g..&lt;/font&gt;" style="rounded=1;whiteSpace=wrap;html=1;align=left;" vertex="1" parent="1">
          <mxGeometry x="430.26" y="1063" width="548.2" height="100" as="geometry" />
        </mxCell>
        <mxCell id="oGBp75-06O2wuK81VP2u-238" value="Continue" style="rounded=1;whiteSpace=wrap;html=1;" vertex="1" parent="1">
          <mxGeometry x="876.4599999999999" y="1173" width="102" height="47" as="geometry" />
        </mxCell>
        <mxCell id="oGBp75-06O2wuK81VP2u-239" value="Back" style="rounded=1;whiteSpace=wrap;html=1;" vertex="1" parent="1">
          <mxGeometry x="770.56" y="1173" width="77" height="47" as="geometry" />
        </mxCell>
        <mxCell id="oGBp75-06O2wuK81VP2u-240" value="&lt;div&gt;&lt;font style=&quot;font-size: 18px;&quot;&gt;Network Identifier&lt;/font&gt;&lt;/div&gt;&lt;font style=&quot;font-size: 12px;&quot;&gt;Add a unique network identifier that is assigned to each device.&lt;/font&gt;" style="rounded=1;whiteSpace=wrap;html=1;strokeColor=none;align=left;" vertex="1" parent="1">
          <mxGeometry x="467.26" y="862" width="353.74" height="61" as="geometry" />
        </mxCell>
        <mxCell id="oGBp75-06O2wuK81VP2u-242" value="&lt;font style=&quot;font-size: 14px;&quot;&gt;&lt;span style=&quot;white-space: pre;&quot;&gt;&#x9;&lt;/span&gt;Exit node&lt;/font&gt;" style="rounded=1;whiteSpace=wrap;html=1;align=left;" vertex="1" parent="1">
          <mxGeometry x="462.06" y="928" width="481.6" height="39" as="geometry" />
        </mxCell>
        <mxCell id="oGBp75-06O2wuK81VP2u-243" value="" style="whiteSpace=wrap;html=1;aspect=fixed;" vertex="1" parent="1">
          <mxGeometry x="403.2" y="1347" width="588" height="588" as="geometry" />
        </mxCell>
        <mxCell id="oGBp75-06O2wuK81VP2u-244" value="&lt;div&gt;&lt;font style=&quot;font-size: 18px;&quot;&gt;Add Exit Node&lt;/font&gt;&lt;/div&gt;&lt;div&gt;&lt;font style=&quot;font-size: 14px;&quot;&gt;Route all internet traffic through a peer&lt;/font&gt;&lt;/div&gt;" style="rounded=1;whiteSpace=wrap;html=1;align=left;strokeColor=none;" vertex="1" parent="1">
          <mxGeometry x="420.4" y="1351" width="268.8" height="60" as="geometry" />
        </mxCell>
        <mxCell id="oGBp75-06O2wuK81VP2u-245" value="" style="endArrow=none;html=1;rounded=0;exitX=-0.003;exitY=0.301;exitDx=0;exitDy=0;exitPerimeter=0;entryX=1;entryY=0.295;entryDx=0;entryDy=0;entryPerimeter=0;" edge="1" parent="1" source="oGBp75-06O2wuK81VP2u-243" target="oGBp75-06O2wuK81VP2u-243">
          <mxGeometry width="50" height="50" relative="1" as="geometry">
            <mxPoint x="552.9999999999999" y="1643" as="sourcePoint" />
            <mxPoint x="602.9999999999999" y="1593" as="targetPoint" />
          </mxGeometry>
        </mxCell>
        <mxCell id="oGBp75-06O2wuK81VP2u-246" value="Routes" style="rounded=1;whiteSpace=wrap;html=1;strokeColor=none;" vertex="1" parent="1">
          <mxGeometry x="453.40000000000003" y="1472.5" width="91.7" height="39" as="geometry" />
        </mxCell>
        <mxCell id="oGBp75-06O2wuK81VP2u-247" value="Name &amp;amp; Description" style="rounded=1;whiteSpace=wrap;html=1;strokeColor=none;" vertex="1" parent="1">
          <mxGeometry x="572.9999999999999" y="1474" width="127.2" height="36" as="geometry" />
        </mxCell>
        <mxCell id="oGBp75-06O2wuK81VP2u-248" value="Additional Settings" style="rounded=1;whiteSpace=wrap;html=1;strokeColor=default;" vertex="1" parent="1">
          <mxGeometry x="740.9999999999998" y="1478" width="127.2" height="36" as="geometry" />
        </mxCell>
        <mxCell id="oGBp75-06O2wuK81VP2u-249" value="" style="rounded=1;whiteSpace=wrap;html=1;" vertex="1" parent="1">
          <mxGeometry x="423" y="1541" width="550.8" height="100" as="geometry" />
        </mxCell>
        <mxCell id="oGBp75-06O2wuK81VP2u-250" value="&lt;div style=&quot;text-align: left;&quot;&gt;&lt;span style=&quot;font-size: 18px;&quot;&gt;Metrics&lt;/span&gt;&lt;/div&gt;&lt;div style=&quot;text-align: left;&quot;&gt;Lower metrics indicating higher priority routes.&lt;br&gt;&lt;/div&gt;" style="rounded=1;whiteSpace=wrap;html=1;strokeColor=none;" vertex="1" parent="1">
          <mxGeometry x="417.19" y="1669" width="284.6" height="60" as="geometry" />
        </mxCell>
        <mxCell id="oGBp75-06O2wuK81VP2u-251" value="&lt;span style=&quot;font-size: 14px;&quot;&gt;9999&lt;/span&gt;" style="rounded=1;whiteSpace=wrap;html=1;align=center;" vertex="1" parent="1">
          <mxGeometry x="793.3" y="1686" width="141.88" height="47" as="geometry" />
        </mxCell>
        <mxCell id="oGBp75-06O2wuK81VP2u-252" value="Add exit node" style="rounded=1;whiteSpace=wrap;html=1;" vertex="1" parent="1">
          <mxGeometry x="869.0799999999999" y="1841" width="102" height="47" as="geometry" />
        </mxCell>
        <mxCell id="oGBp75-06O2wuK81VP2u-253" value="Back" style="rounded=1;whiteSpace=wrap;html=1;" vertex="1" parent="1">
          <mxGeometry x="760.8899999999999" y="1841" width="77" height="47" as="geometry" />
        </mxCell>
        <mxCell id="oGBp75-06O2wuK81VP2u-257" value="&lt;font style=&quot;font-size: 18px;&quot;&gt;Enable Route&lt;/font&gt;&lt;div&gt;Use this switch to enable or disable the route.&lt;br&gt;&lt;/div&gt;" style="rounded=1;whiteSpace=wrap;html=1;strokeColor=none;align=left;" vertex="1" parent="1">
          <mxGeometry x="444" y="1563.5" width="254.01" height="55" as="geometry" />
        </mxCell>
        <mxCell id="oGBp75-06O2wuK81VP2u-258" value="" style="fillColor=#36B37E;strokeColor=none;rounded=1;arcSize=50;sketch=0;hachureGap=4;pointerEvents=0;fontFamily=Architects Daughter;fontSource=https%3A%2F%2Ffonts.googleapis.com%2Fcss%3Ffamily%3DArchitects%2BDaughter;fontSize=20;" vertex="1" parent="1">
          <mxGeometry x="870" y="1586" width="40" height="20" as="geometry" />
        </mxCell>
        <mxCell id="oGBp75-06O2wuK81VP2u-259" value="" style="shape=ellipse;strokeColor=none;fillColor=#ffffff;sketch=0;hachureGap=4;pointerEvents=0;fontFamily=Architects Daughter;fontSource=https%3A%2F%2Ffonts.googleapis.com%2Fcss%3Ffamily%3DArchitects%2BDaughter;fontSize=20;" vertex="1" parent="oGBp75-06O2wuK81VP2u-258">
          <mxGeometry x="1" y="0.5" width="16" height="16" relative="1" as="geometry">
            <mxPoint x="-18" y="-8" as="offset" />
          </mxGeometry>
        </mxCell>
        <mxCell id="oGBp75-06O2wuK81VP2u-260" value="" style="html=1;shadow=0;dashed=0;shape=mxgraph.atlassian.check;strokeColor=#ffffff;strokeWidth=2;sketch=1;hachureGap=4;pointerEvents=0;fontFamily=Architects Daughter;fontSource=https%3A%2F%2Ffonts.googleapis.com%2Fcss%3Ffamily%3DArchitects%2BDaughter;fontSize=20;" vertex="1" parent="oGBp75-06O2wuK81VP2u-258">
          <mxGeometry y="0.5" width="10" height="8" relative="1" as="geometry">
            <mxPoint x="6" y="-5" as="offset" />
          </mxGeometry>
        </mxCell>
        <mxCell id="oGBp75-06O2wuK81VP2u-269" value="&lt;div style=&quot;text-align: left;&quot;&gt;&lt;span style=&quot;background-color: initial;&quot;&gt;&lt;font style=&quot;font-size: 18px;&quot;&gt;Distribution groups&lt;/font&gt;&lt;/span&gt;&lt;/div&gt;&lt;div style=&quot;text-align: left;&quot;&gt;Route all internet traffic through the peer(s) for the following groups&lt;br&gt;&lt;/div&gt;" style="rounded=1;whiteSpace=wrap;html=1;strokeColor=none;" vertex="1" parent="1">
          <mxGeometry x="430.8" y="2835" width="381.6" height="42" as="geometry" />
        </mxCell>
        <mxCell id="oGBp75-06O2wuK81VP2u-270" value="&lt;font style=&quot;font-size: 14px;&quot;&gt;&lt;span style=&quot;white-space: pre;&quot;&gt;&#x9;&lt;/span&gt;&lt;span style=&quot;white-space: pre;&quot;&gt;&#x9;&lt;/span&gt;Add or select groups ...&lt;/font&gt;" style="rounded=1;whiteSpace=wrap;html=1;align=left;" vertex="1" parent="1">
          <mxGeometry x="439.57" y="2889" width="548.2" height="47" as="geometry" />
        </mxCell>
        <mxCell id="oGBp75-06O2wuK81VP2u-271" value="Continue" style="rounded=1;whiteSpace=wrap;html=1;" vertex="1" parent="1">
          <mxGeometry x="884.8899999999999" y="2948" width="102" height="47" as="geometry" />
        </mxCell>
        <mxCell id="oGBp75-06O2wuK81VP2u-272" value="Cancel" style="rounded=1;whiteSpace=wrap;html=1;" vertex="1" parent="1">
          <mxGeometry x="778.9899999999999" y="2948" width="77" height="47" as="geometry" />
        </mxCell>
        <mxCell id="oGBp75-06O2wuK81VP2u-275" value="&lt;font style=&quot;font-size: 14px;&quot;&gt;&lt;span style=&quot;white-space: pre;&quot;&gt;&#x9;&lt;/span&gt;Add or select a group&amp;nbsp;...&lt;/font&gt;" style="rounded=1;whiteSpace=wrap;html=1;align=left;" vertex="1" parent="1">
          <mxGeometry x="469.24" y="2775" width="481.6" height="39" as="geometry" />
        </mxCell>
        <mxCell id="oGBp75-06O2wuK81VP2u-279" value="" style="whiteSpace=wrap;html=1;aspect=fixed;" vertex="1" parent="1">
          <mxGeometry x="403.2" y="2735" width="588" height="588" as="geometry" />
        </mxCell>
        <mxCell id="oGBp75-06O2wuK81VP2u-280" value="&lt;div&gt;&lt;span style=&quot;font-size: 18px;&quot;&gt;Create New Route&lt;/span&gt;&lt;/div&gt;&lt;div&gt;Access LANs and VPC by adding a network route.&lt;br&gt;&lt;/div&gt;" style="rounded=1;whiteSpace=wrap;html=1;align=left;strokeColor=none;" vertex="1" parent="1">
          <mxGeometry x="420.3" y="2750" width="278.02" height="60" as="geometry" />
        </mxCell>
        <mxCell id="oGBp75-06O2wuK81VP2u-281" value="" style="endArrow=none;html=1;rounded=0;exitX=0;exitY=0.25;exitDx=0;exitDy=0;entryX=1;entryY=0.25;entryDx=0;entryDy=0;" edge="1" parent="1" source="oGBp75-06O2wuK81VP2u-279" target="oGBp75-06O2wuK81VP2u-279">
          <mxGeometry width="50" height="50" relative="1" as="geometry">
            <mxPoint x="552.9999999999999" y="3031" as="sourcePoint" />
            <mxPoint x="602.9999999999999" y="2981" as="targetPoint" />
          </mxGeometry>
        </mxCell>
        <mxCell id="oGBp75-06O2wuK81VP2u-282" value="Route" style="rounded=1;whiteSpace=wrap;html=1;" vertex="1" parent="1">
          <mxGeometry x="452.96000000000004" y="2831" width="91.7" height="39" as="geometry" />
        </mxCell>
        <mxCell id="oGBp75-06O2wuK81VP2u-283" value="Name &amp;amp; Description" style="rounded=1;whiteSpace=wrap;html=1;strokeColor=none;" vertex="1" parent="1">
          <mxGeometry x="578.4199999999998" y="2832.5" width="127.2" height="36" as="geometry" />
        </mxCell>
        <mxCell id="oGBp75-06O2wuK81VP2u-284" value="Additional Settings" style="rounded=1;whiteSpace=wrap;html=1;strokeColor=none;" vertex="1" parent="1">
          <mxGeometry x="739.2199999999998" y="2834" width="127.2" height="36" as="geometry" />
        </mxCell>
        <mxCell id="oGBp75-06O2wuK81VP2u-285" value="" style="rounded=1;whiteSpace=wrap;html=1;" vertex="1" parent="1">
          <mxGeometry x="422.11" y="3017" width="550.8" height="119" as="geometry" />
        </mxCell>
        <mxCell id="oGBp75-06O2wuK81VP2u-286" value="&lt;div style=&quot;text-align: left;&quot;&gt;&lt;span style=&quot;background-color: initial;&quot;&gt;&lt;font style=&quot;font-size: 18px;&quot;&gt;Distribution groups&lt;/font&gt;&lt;/span&gt;&lt;/div&gt;&lt;div style=&quot;text-align: left;&quot;&gt;Route all internet traffic through the peer(s) for the following groups&lt;br&gt;&lt;/div&gt;" style="rounded=1;whiteSpace=wrap;html=1;strokeColor=none;" vertex="1" parent="1">
          <mxGeometry x="417.91" y="3145" width="381.6" height="42" as="geometry" />
        </mxCell>
        <mxCell id="oGBp75-06O2wuK81VP2u-287" value="&lt;font style=&quot;font-size: 14px;&quot;&gt;&lt;span style=&quot;white-space: pre;&quot;&gt;&#x9;&lt;/span&gt;&lt;span style=&quot;white-space: pre;&quot;&gt;&#x9;&lt;/span&gt;Add or select groups ...&lt;/font&gt;" style="rounded=1;whiteSpace=wrap;html=1;align=left;" vertex="1" parent="1">
          <mxGeometry x="426.68" y="3199" width="548.2" height="47" as="geometry" />
        </mxCell>
        <mxCell id="oGBp75-06O2wuK81VP2u-288" value="Continue" style="rounded=1;whiteSpace=wrap;html=1;" vertex="1" parent="1">
          <mxGeometry x="871.9999999999999" y="3258" width="102" height="47" as="geometry" />
        </mxCell>
        <mxCell id="oGBp75-06O2wuK81VP2u-289" value="Cancel" style="rounded=1;whiteSpace=wrap;html=1;" vertex="1" parent="1">
          <mxGeometry x="766.0999999999999" y="3258" width="77" height="47" as="geometry" />
        </mxCell>
        <mxCell id="oGBp75-06O2wuK81VP2u-290" value="Routing peer" style="rounded=1;whiteSpace=wrap;html=1;strokeColor=none;" vertex="1" parent="1">
          <mxGeometry x="452.74" y="3033" width="195.2" height="37" as="geometry" />
        </mxCell>
        <mxCell id="oGBp75-06O2wuK81VP2u-291" value="Peer groups" style="rounded=1;whiteSpace=wrap;html=1;strokeColor=default;" vertex="1" parent="1">
          <mxGeometry x="725.25" y="3037.5" width="195.2" height="37" as="geometry" />
        </mxCell>
        <mxCell id="oGBp75-06O2wuK81VP2u-292" value="&lt;font style=&quot;font-size: 14px;&quot;&gt;&lt;span style=&quot;white-space: pre;&quot;&gt;&#x9;&lt;/span&gt;Add or select a group&amp;nbsp;...&lt;/font&gt;" style="rounded=1;whiteSpace=wrap;html=1;align=left;" vertex="1" parent="1">
          <mxGeometry x="456.35" y="3085" width="481.6" height="39" as="geometry" />
        </mxCell>
        <mxCell id="oGBp75-06O2wuK81VP2u-293" value="&lt;font style=&quot;font-size: 14px;&quot;&gt;&lt;span style=&quot;white-space: pre;&quot;&gt;&#x9;&lt;/span&gt;e.g. 192.168.100.0/24&lt;/font&gt;" style="rounded=1;whiteSpace=wrap;html=1;align=left;" vertex="1" parent="1">
          <mxGeometry x="424.71" y="2944" width="548.2" height="47" as="geometry" />
        </mxCell>
        <mxCell id="oGBp75-06O2wuK81VP2u-294" value="&lt;div style=&quot;text-align: left;&quot;&gt;&lt;span style=&quot;font-size: 18px;&quot;&gt;Network range&lt;/span&gt;&lt;/div&gt;&lt;div style=&quot;text-align: left;&quot;&gt;Add a private IP address range&lt;br&gt;&lt;/div&gt;" style="rounded=1;whiteSpace=wrap;html=1;strokeColor=none;" vertex="1" parent="1">
          <mxGeometry x="423.1" y="2895" width="176.32" height="40" as="geometry" />
        </mxCell>
        <mxCell id="oGBp75-06O2wuK81VP2u-296" value="&lt;div style=&quot;text-align: left;&quot;&gt;&lt;span style=&quot;background-color: initial;&quot;&gt;&lt;font style=&quot;font-size: 18px;&quot;&gt;Distribution groups&lt;/font&gt;&lt;/span&gt;&lt;/div&gt;&lt;div style=&quot;text-align: left;&quot;&gt;Route all internet traffic through the peer(s) for the following groups&lt;br&gt;&lt;/div&gt;" style="rounded=1;whiteSpace=wrap;html=1;strokeColor=none;" vertex="1" parent="1">
          <mxGeometry x="422.00000000000006" y="2151" width="381.6" height="42" as="geometry" />
        </mxCell>
        <mxCell id="oGBp75-06O2wuK81VP2u-297" value="&lt;font style=&quot;font-size: 14px;&quot;&gt;&lt;span style=&quot;white-space: pre;&quot;&gt;&#x9;&lt;/span&gt;&lt;span style=&quot;white-space: pre;&quot;&gt;&#x9;&lt;/span&gt;Add or select groups ...&lt;/font&gt;" style="rounded=1;whiteSpace=wrap;html=1;align=left;" vertex="1" parent="1">
          <mxGeometry x="430.77000000000004" y="2205" width="548.2" height="47" as="geometry" />
        </mxCell>
        <mxCell id="oGBp75-06O2wuK81VP2u-298" value="Continue" style="rounded=1;whiteSpace=wrap;html=1;" vertex="1" parent="1">
          <mxGeometry x="876.0899999999998" y="2264" width="102" height="47" as="geometry" />
        </mxCell>
        <mxCell id="oGBp75-06O2wuK81VP2u-299" value="Cancel" style="rounded=1;whiteSpace=wrap;html=1;" vertex="1" parent="1">
          <mxGeometry x="770.1899999999998" y="2264" width="77" height="47" as="geometry" />
        </mxCell>
        <mxCell id="oGBp75-06O2wuK81VP2u-300" value="&lt;font style=&quot;font-size: 14px;&quot;&gt;&lt;span style=&quot;white-space: pre;&quot;&gt;&#x9;&lt;/span&gt;Add or select a group&amp;nbsp;...&lt;/font&gt;" style="rounded=1;whiteSpace=wrap;html=1;align=left;" vertex="1" parent="1">
          <mxGeometry x="460.44000000000005" y="2091" width="481.6" height="39" as="geometry" />
        </mxCell>
        <mxCell id="oGBp75-06O2wuK81VP2u-301" value="" style="whiteSpace=wrap;html=1;aspect=fixed;" vertex="1" parent="1">
          <mxGeometry x="394.40000000000003" y="2051" width="588" height="588" as="geometry" />
        </mxCell>
        <mxCell id="oGBp75-06O2wuK81VP2u-302" value="&lt;div&gt;&lt;span style=&quot;font-size: 18px;&quot;&gt;Create New Route&lt;/span&gt;&lt;/div&gt;&lt;div&gt;Access LANs and VPC by adding a network route.&lt;br&gt;&lt;/div&gt;" style="rounded=1;whiteSpace=wrap;html=1;align=left;strokeColor=none;" vertex="1" parent="1">
          <mxGeometry x="411.50000000000006" y="2066" width="278.02" height="60" as="geometry" />
        </mxCell>
        <mxCell id="oGBp75-06O2wuK81VP2u-303" value="" style="endArrow=none;html=1;rounded=0;exitX=0;exitY=0.25;exitDx=0;exitDy=0;entryX=1;entryY=0.25;entryDx=0;entryDy=0;" edge="1" parent="1" source="oGBp75-06O2wuK81VP2u-301" target="oGBp75-06O2wuK81VP2u-301">
          <mxGeometry width="50" height="50" relative="1" as="geometry">
            <mxPoint x="544.1999999999998" y="2347" as="sourcePoint" />
            <mxPoint x="594.1999999999998" y="2297" as="targetPoint" />
          </mxGeometry>
        </mxCell>
        <mxCell id="oGBp75-06O2wuK81VP2u-304" value="Route" style="rounded=1;whiteSpace=wrap;html=1;" vertex="1" parent="1">
          <mxGeometry x="444.1600000000001" y="2147" width="91.7" height="39" as="geometry" />
        </mxCell>
        <mxCell id="oGBp75-06O2wuK81VP2u-305" value="Name &amp;amp; Description" style="rounded=1;whiteSpace=wrap;html=1;strokeColor=none;" vertex="1" parent="1">
          <mxGeometry x="569.6199999999998" y="2148.5" width="127.2" height="36" as="geometry" />
        </mxCell>
        <mxCell id="oGBp75-06O2wuK81VP2u-306" value="Additional Settings" style="rounded=1;whiteSpace=wrap;html=1;strokeColor=none;" vertex="1" parent="1">
          <mxGeometry x="730.4199999999997" y="2150" width="127.2" height="36" as="geometry" />
        </mxCell>
        <mxCell id="oGBp75-06O2wuK81VP2u-307" value="" style="rounded=1;whiteSpace=wrap;html=1;" vertex="1" parent="1">
          <mxGeometry x="413.31000000000006" y="2333" width="550.8" height="119" as="geometry" />
        </mxCell>
        <mxCell id="oGBp75-06O2wuK81VP2u-308" value="&lt;div style=&quot;text-align: left;&quot;&gt;&lt;span style=&quot;background-color: initial;&quot;&gt;&lt;font style=&quot;font-size: 18px;&quot;&gt;Distribution groups&lt;/font&gt;&lt;/span&gt;&lt;/div&gt;&lt;div style=&quot;text-align: left;&quot;&gt;Route all internet traffic through the peer(s) for the following groups&lt;br&gt;&lt;/div&gt;" style="rounded=1;whiteSpace=wrap;html=1;strokeColor=none;" vertex="1" parent="1">
          <mxGeometry x="409.11000000000007" y="2461" width="381.6" height="42" as="geometry" />
        </mxCell>
        <mxCell id="oGBp75-06O2wuK81VP2u-309" value="&lt;font style=&quot;font-size: 14px;&quot;&gt;&lt;span style=&quot;white-space: pre;&quot;&gt;&#x9;&lt;/span&gt;&lt;span style=&quot;white-space: pre;&quot;&gt;&#x9;&lt;/span&gt;Add or select groups ...&lt;/font&gt;" style="rounded=1;whiteSpace=wrap;html=1;align=left;" vertex="1" parent="1">
          <mxGeometry x="417.88000000000005" y="2515" width="548.2" height="47" as="geometry" />
        </mxCell>
        <mxCell id="oGBp75-06O2wuK81VP2u-310" value="Continue" style="rounded=1;whiteSpace=wrap;html=1;" vertex="1" parent="1">
          <mxGeometry x="863.1999999999998" y="2574" width="102" height="47" as="geometry" />
        </mxCell>
        <mxCell id="oGBp75-06O2wuK81VP2u-311" value="Cancel" style="rounded=1;whiteSpace=wrap;html=1;" vertex="1" parent="1">
          <mxGeometry x="757.2999999999998" y="2574" width="77" height="47" as="geometry" />
        </mxCell>
        <mxCell id="oGBp75-06O2wuK81VP2u-312" value="Routing peer" style="rounded=1;whiteSpace=wrap;html=1;strokeColor=default;" vertex="1" parent="1">
          <mxGeometry x="443.94000000000005" y="2349" width="195.2" height="37" as="geometry" />
        </mxCell>
        <mxCell id="oGBp75-06O2wuK81VP2u-313" value="Peer groups" style="rounded=1;whiteSpace=wrap;html=1;strokeColor=none;" vertex="1" parent="1">
          <mxGeometry x="716.4499999999999" y="2353.5" width="195.2" height="37" as="geometry" />
        </mxCell>
        <mxCell id="oGBp75-06O2wuK81VP2u-315" value="&lt;font style=&quot;font-size: 14px;&quot;&gt;&lt;span style=&quot;white-space: pre;&quot;&gt;&#x9;&lt;/span&gt;e.g. 192.168.100.0/24&lt;/font&gt;" style="rounded=1;whiteSpace=wrap;html=1;align=left;" vertex="1" parent="1">
          <mxGeometry x="415.91" y="2260" width="548.2" height="47" as="geometry" />
        </mxCell>
        <mxCell id="oGBp75-06O2wuK81VP2u-316" value="&lt;div style=&quot;text-align: left;&quot;&gt;&lt;span style=&quot;font-size: 18px;&quot;&gt;Network range&lt;/span&gt;&lt;/div&gt;&lt;div style=&quot;text-align: left;&quot;&gt;Add a private IP address range&lt;br&gt;&lt;/div&gt;" style="rounded=1;whiteSpace=wrap;html=1;strokeColor=none;" vertex="1" parent="1">
          <mxGeometry x="414.30000000000007" y="2211" width="176.32" height="40" as="geometry" />
        </mxCell>
        <mxCell id="oGBp75-06O2wuK81VP2u-317" value="&lt;font style=&quot;font-size: 14px;&quot;&gt;&lt;span style=&quot;white-space: pre;&quot;&gt;&#x9;&lt;/span&gt;Select a peer ...&lt;/font&gt;" style="rounded=1;whiteSpace=wrap;html=1;align=left;" vertex="1" parent="1">
          <mxGeometry x="438.85" y="2399" width="481.6" height="39" as="geometry" />
        </mxCell>
        <mxCell id="oGBp75-06O2wuK81VP2u-318" value="" style="whiteSpace=wrap;html=1;aspect=fixed;" vertex="1" parent="1">
          <mxGeometry x="399.96" y="3451" width="588" height="588" as="geometry" />
        </mxCell>
        <mxCell id="oGBp75-06O2wuK81VP2u-320" value="" style="endArrow=none;html=1;rounded=0;exitX=-0.003;exitY=0.301;exitDx=0;exitDy=0;exitPerimeter=0;entryX=1;entryY=0.295;entryDx=0;entryDy=0;entryPerimeter=0;" edge="1" parent="1" source="oGBp75-06O2wuK81VP2u-318" target="oGBp75-06O2wuK81VP2u-318">
          <mxGeometry width="50" height="50" relative="1" as="geometry">
            <mxPoint x="549.7599999999999" y="3747" as="sourcePoint" />
            <mxPoint x="599.7599999999999" y="3697" as="targetPoint" />
          </mxGeometry>
        </mxCell>
        <mxCell id="oGBp75-06O2wuK81VP2u-321" value="Routes" style="rounded=1;whiteSpace=wrap;html=1;strokeColor=none;" vertex="1" parent="1">
          <mxGeometry x="450.16" y="3576.5" width="91.7" height="39" as="geometry" />
        </mxCell>
        <mxCell id="oGBp75-06O2wuK81VP2u-322" value="Name &amp;amp; Description" style="rounded=1;whiteSpace=wrap;html=1;strokeColor=default;" vertex="1" parent="1">
          <mxGeometry x="569.7599999999999" y="3578" width="127.2" height="36" as="geometry" />
        </mxCell>
        <mxCell id="oGBp75-06O2wuK81VP2u-323" value="Additional Settings" style="rounded=1;whiteSpace=wrap;html=1;strokeColor=none;" vertex="1" parent="1">
          <mxGeometry x="737.7599999999998" y="3582" width="127.2" height="36" as="geometry" />
        </mxCell>
        <mxCell id="oGBp75-06O2wuK81VP2u-324" value="" style="rounded=1;whiteSpace=wrap;html=1;" vertex="1" parent="1">
          <mxGeometry x="419.76" y="3645" width="550.8" height="146" as="geometry" />
        </mxCell>
        <mxCell id="oGBp75-06O2wuK81VP2u-325" value="&lt;div style=&quot;text-align: left;&quot;&gt;&lt;span style=&quot;background-color: initial;&quot;&gt;&lt;font style=&quot;font-size: 18px;&quot;&gt;Description (optional)&lt;/font&gt;&lt;/span&gt;&lt;/div&gt;&lt;div style=&quot;text-align: left;&quot;&gt;&lt;span style=&quot;background-color: initial;&quot;&gt;&lt;font style=&quot;&quot;&gt;&lt;font style=&quot;font-size: 12px;&quot;&gt;Write a short description to add more context to this route.&lt;/font&gt;&lt;br&gt;&lt;/font&gt;&lt;/span&gt;&lt;/div&gt;" style="rounded=1;whiteSpace=wrap;html=1;strokeColor=none;" vertex="1" parent="1">
          <mxGeometry x="403.99999999999994" y="3795" width="381.6" height="60" as="geometry" />
        </mxCell>
        <mxCell id="oGBp75-06O2wuK81VP2u-326" value="&lt;font style=&quot;font-size: 14px;&quot;&gt;&lt;span style=&quot;white-space: pre;&quot;&gt;&#x9;&lt;/span&gt;&lt;span style=&quot;white-space: pre;&quot;&gt;&#x9;&lt;/span&gt;e.g..&lt;/font&gt;" style="rounded=1;whiteSpace=wrap;html=1;align=left;" vertex="1" parent="1">
          <mxGeometry x="422.56" y="3864" width="548.2" height="100" as="geometry" />
        </mxCell>
        <mxCell id="oGBp75-06O2wuK81VP2u-327" value="Continue" style="rounded=1;whiteSpace=wrap;html=1;" vertex="1" parent="1">
          <mxGeometry x="868.7599999999999" y="3974" width="102" height="47" as="geometry" />
        </mxCell>
        <mxCell id="oGBp75-06O2wuK81VP2u-328" value="Back" style="rounded=1;whiteSpace=wrap;html=1;" vertex="1" parent="1">
          <mxGeometry x="762.8599999999999" y="3974" width="77" height="47" as="geometry" />
        </mxCell>
        <mxCell id="oGBp75-06O2wuK81VP2u-329" value="&lt;div&gt;&lt;font style=&quot;font-size: 18px;&quot;&gt;Network Identifier&lt;/font&gt;&lt;/div&gt;&lt;font style=&quot;font-size: 12px;&quot;&gt;Add a unique network identifier that is assigned to each device.&lt;/font&gt;" style="rounded=1;whiteSpace=wrap;html=1;strokeColor=none;align=left;" vertex="1" parent="1">
          <mxGeometry x="459.56" y="3663" width="353.74" height="61" as="geometry" />
        </mxCell>
        <mxCell id="oGBp75-06O2wuK81VP2u-330" value="&lt;font style=&quot;font-size: 14px;&quot;&gt;&lt;span style=&quot;white-space: pre;&quot;&gt;&#x9;&lt;/span&gt;Exit node&lt;/font&gt;" style="rounded=1;whiteSpace=wrap;html=1;align=left;" vertex="1" parent="1">
          <mxGeometry x="454.36" y="3729" width="481.6" height="39" as="geometry" />
        </mxCell>
        <mxCell id="oGBp75-06O2wuK81VP2u-331" value="&lt;div&gt;&lt;span style=&quot;font-size: 18px;&quot;&gt;Create New Route&lt;/span&gt;&lt;/div&gt;&lt;div&gt;Access LANs and VPC by adding a network route.&lt;br&gt;&lt;/div&gt;" style="rounded=1;whiteSpace=wrap;html=1;align=left;strokeColor=none;" vertex="1" parent="1">
          <mxGeometry x="430.26" y="3471" width="278.02" height="60" as="geometry" />
        </mxCell>
        <mxCell id="oGBp75-06O2wuK81VP2u-332" value="" style="whiteSpace=wrap;html=1;aspect=fixed;" vertex="1" parent="1">
          <mxGeometry x="400.84" y="4121" width="588" height="588" as="geometry" />
        </mxCell>
        <mxCell id="oGBp75-06O2wuK81VP2u-334" value="" style="endArrow=none;html=1;rounded=0;exitX=-0.003;exitY=0.301;exitDx=0;exitDy=0;exitPerimeter=0;entryX=1;entryY=0.295;entryDx=0;entryDy=0;entryPerimeter=0;" edge="1" parent="1" source="oGBp75-06O2wuK81VP2u-332" target="oGBp75-06O2wuK81VP2u-332">
          <mxGeometry width="50" height="50" relative="1" as="geometry">
            <mxPoint x="550.6399999999999" y="4417" as="sourcePoint" />
            <mxPoint x="600.6399999999999" y="4367" as="targetPoint" />
          </mxGeometry>
        </mxCell>
        <mxCell id="oGBp75-06O2wuK81VP2u-335" value="Routes" style="rounded=1;whiteSpace=wrap;html=1;strokeColor=none;" vertex="1" parent="1">
          <mxGeometry x="451.04" y="4246.5" width="91.7" height="39" as="geometry" />
        </mxCell>
        <mxCell id="oGBp75-06O2wuK81VP2u-336" value="Name &amp;amp; Description" style="rounded=1;whiteSpace=wrap;html=1;strokeColor=none;" vertex="1" parent="1">
          <mxGeometry x="570.6399999999999" y="4248" width="127.2" height="36" as="geometry" />
        </mxCell>
        <mxCell id="oGBp75-06O2wuK81VP2u-337" value="Additional Settings" style="rounded=1;whiteSpace=wrap;html=1;strokeColor=default;" vertex="1" parent="1">
          <mxGeometry x="738.6399999999998" y="4252" width="127.2" height="36" as="geometry" />
        </mxCell>
        <mxCell id="oGBp75-06O2wuK81VP2u-338" value="" style="rounded=1;whiteSpace=wrap;html=1;" vertex="1" parent="1">
          <mxGeometry x="419.44" y="4326" width="550.8" height="77" as="geometry" />
        </mxCell>
        <mxCell id="oGBp75-06O2wuK81VP2u-339" value="&lt;div style=&quot;text-align: left;&quot;&gt;&lt;span style=&quot;font-size: 18px;&quot;&gt;Metrics&lt;/span&gt;&lt;/div&gt;&lt;div style=&quot;text-align: left;&quot;&gt;Lower metrics indicating higher priority routes.&lt;br&gt;&lt;/div&gt;" style="rounded=1;whiteSpace=wrap;html=1;strokeColor=none;" vertex="1" parent="1">
          <mxGeometry x="415.90999999999997" y="4534" width="284.6" height="60" as="geometry" />
        </mxCell>
        <mxCell id="oGBp75-06O2wuK81VP2u-340" value="&lt;span style=&quot;font-size: 14px;&quot;&gt;9999&lt;/span&gt;" style="rounded=1;whiteSpace=wrap;html=1;align=center;" vertex="1" parent="1">
          <mxGeometry x="803.5999999999999" y="4547" width="141.88" height="47" as="geometry" />
        </mxCell>
        <mxCell id="oGBp75-06O2wuK81VP2u-341" value="Add Route" style="rounded=1;whiteSpace=wrap;html=1;" vertex="1" parent="1">
          <mxGeometry x="865.8399999999999" y="4635" width="102" height="47" as="geometry" />
        </mxCell>
        <mxCell id="oGBp75-06O2wuK81VP2u-342" value="Back" style="rounded=1;whiteSpace=wrap;html=1;" vertex="1" parent="1">
          <mxGeometry x="764.3199999999998" y="4635" width="77" height="47" as="geometry" />
        </mxCell>
        <mxCell id="oGBp75-06O2wuK81VP2u-343" value="&lt;font style=&quot;font-size: 18px;&quot;&gt;Enable Route&lt;/font&gt;&lt;div&gt;Use this switch to enable or disable the route.&lt;br&gt;&lt;/div&gt;" style="rounded=1;whiteSpace=wrap;html=1;strokeColor=none;align=left;" vertex="1" parent="1">
          <mxGeometry x="444.15999999999997" y="4337" width="254.01" height="55" as="geometry" />
        </mxCell>
        <mxCell id="oGBp75-06O2wuK81VP2u-344" value="" style="fillColor=#36B37E;strokeColor=none;rounded=1;arcSize=50;sketch=0;hachureGap=4;pointerEvents=0;fontFamily=Architects Daughter;fontSource=https%3A%2F%2Ffonts.googleapis.com%2Fcss%3Ffamily%3DArchitects%2BDaughter;fontSize=20;" vertex="1" parent="1">
          <mxGeometry x="867.64" y="4360" width="40" height="20" as="geometry" />
        </mxCell>
        <mxCell id="oGBp75-06O2wuK81VP2u-345" value="" style="shape=ellipse;strokeColor=none;fillColor=#ffffff;sketch=0;hachureGap=4;pointerEvents=0;fontFamily=Architects Daughter;fontSource=https%3A%2F%2Ffonts.googleapis.com%2Fcss%3Ffamily%3DArchitects%2BDaughter;fontSize=20;" vertex="1" parent="oGBp75-06O2wuK81VP2u-344">
          <mxGeometry x="1" y="0.5" width="16" height="16" relative="1" as="geometry">
            <mxPoint x="-18" y="-8" as="offset" />
          </mxGeometry>
        </mxCell>
        <mxCell id="oGBp75-06O2wuK81VP2u-346" value="" style="html=1;shadow=0;dashed=0;shape=mxgraph.atlassian.check;strokeColor=#ffffff;strokeWidth=2;sketch=1;hachureGap=4;pointerEvents=0;fontFamily=Architects Daughter;fontSource=https%3A%2F%2Ffonts.googleapis.com%2Fcss%3Ffamily%3DArchitects%2BDaughter;fontSize=20;" vertex="1" parent="oGBp75-06O2wuK81VP2u-344">
          <mxGeometry y="0.5" width="10" height="8" relative="1" as="geometry">
            <mxPoint x="6" y="-5" as="offset" />
          </mxGeometry>
        </mxCell>
        <mxCell id="oGBp75-06O2wuK81VP2u-347" value="&lt;div&gt;&lt;span style=&quot;font-size: 18px;&quot;&gt;Create New Route&lt;/span&gt;&lt;/div&gt;&lt;div&gt;Access LANs and VPC by adding a network route.&lt;br&gt;&lt;/div&gt;" style="rounded=1;whiteSpace=wrap;html=1;align=left;strokeColor=none;" vertex="1" parent="1">
          <mxGeometry x="423.88" y="4137" width="278.02" height="60" as="geometry" />
        </mxCell>
        <mxCell id="oGBp75-06O2wuK81VP2u-349" value="" style="rounded=1;whiteSpace=wrap;html=1;" vertex="1" parent="1">
          <mxGeometry x="423.2" y="4431" width="550.8" height="82" as="geometry" />
        </mxCell>
        <mxCell id="oGBp75-06O2wuK81VP2u-350" value="&lt;span style=&quot;font-size: 18px;&quot;&gt;MASQUERADE&lt;/span&gt;&lt;br&gt;&lt;div&gt;Allow access to your private networks without configuring routes on your local routers or other devices.&lt;br&gt;&lt;/div&gt;" style="rounded=1;whiteSpace=wrap;html=1;strokeColor=none;align=left;" vertex="1" parent="1">
          <mxGeometry x="442.95" y="4442" width="308.05" height="55" as="geometry" />
        </mxCell>
        <mxCell id="oGBp75-06O2wuK81VP2u-351" value="" style="fillColor=#36B37E;strokeColor=none;rounded=1;arcSize=50;sketch=0;hachureGap=4;pointerEvents=0;fontFamily=Architects Daughter;fontSource=https%3A%2F%2Ffonts.googleapis.com%2Fcss%3Ffamily%3DArchitects%2BDaughter;fontSize=20;" vertex="1" parent="1">
          <mxGeometry x="864" y="4463" width="40" height="20" as="geometry" />
        </mxCell>
        <mxCell id="oGBp75-06O2wuK81VP2u-352" value="" style="shape=ellipse;strokeColor=none;fillColor=#ffffff;sketch=0;hachureGap=4;pointerEvents=0;fontFamily=Architects Daughter;fontSource=https%3A%2F%2Ffonts.googleapis.com%2Fcss%3Ffamily%3DArchitects%2BDaughter;fontSize=20;" vertex="1" parent="oGBp75-06O2wuK81VP2u-351">
          <mxGeometry x="1" y="0.5" width="16" height="16" relative="1" as="geometry">
            <mxPoint x="-18" y="-8" as="offset" />
          </mxGeometry>
        </mxCell>
        <mxCell id="oGBp75-06O2wuK81VP2u-353" value="" style="html=1;shadow=0;dashed=0;shape=mxgraph.atlassian.check;strokeColor=#ffffff;strokeWidth=2;sketch=1;hachureGap=4;pointerEvents=0;fontFamily=Architects Daughter;fontSource=https%3A%2F%2Ffonts.googleapis.com%2Fcss%3Ffamily%3DArchitects%2BDaughter;fontSize=20;" vertex="1" parent="oGBp75-06O2wuK81VP2u-351">
          <mxGeometry y="0.5" width="10" height="8" relative="1" as="geometry">
            <mxPoint x="6" y="-5" as="offset" />
          </mxGeometry>
        </mxCell>
      </root>
    </mxGraphModel>
  </diagram>
</mxfile>
